<svg width="130" height="130" viewBox="0 0 130 130" fill="none" xmlns="http://www.w3.org/2000/svg">
<circle cx="65" cy="65" r="65" fill="url(#paint0_linear_160_98280)"/>
<circle cx="65" cy="65" r="30" fill="white"/>
<path fill-rule="evenodd" clip-rule="evenodd" d="M50.4181 58.2678L62.5811 79.7322L65.0003 84L76.4964 63.7096L74.5777 60.324L73.4124 58.2678L70.9943 54H66.157L68.5762 58.2678L71.6602 63.7096L65.0003 75.4633L55.2554 58.2678H59.4042L64.7225 67.6525L67.1417 63.3847L64.2415 58.2678L61.8234 54H56.9861H52.8373H48L50.4181 58.2678Z" fill="#3F82FB"/>
<path fill-rule="evenodd" clip-rule="evenodd" d="M77.1629 54H75.0215L76.0927 55.8889L77.4396 58.2678L78.5108 60.1577L79.5821 58.2678L82.0002 54H77.1629Z" fill="#3F82FB"/>
<path d="M66.5503 19.545L68.0703 10.0001L71.0418 10.468L72.3838 16.1747L72.6337 16.214L75.6568 11.1948L78.6809 11.6711L77.1609 21.216L75.0309 20.8806L76.3281 12.7347L76.6263 12.8084L73.1039 18.5934L71.0528 18.2704L69.4869 11.6841L69.8197 11.7097L68.5226 19.8556L66.5503 19.545Z" fill="white"/>
<path d="M83.4758 24.0386C82.8966 23.7703 82.4229 23.4439 82.0548 23.0592C81.6905 22.6666 81.4245 22.2416 81.2568 21.7843C81.0972 21.3307 81.0306 20.8666 81.0571 20.392C81.0872 19.9095 81.2072 19.4442 81.417 18.9962L81.5463 18.7202C81.7599 18.2642 82.0426 17.8694 82.3946 17.5359C82.7584 17.1981 83.1702 16.9458 83.6301 16.7791C84.098 16.6161 84.5984 16.551 85.1314 16.5836C85.668 16.6082 86.2139 16.7491 86.7691 17.0062C87.3403 17.2707 87.804 17.5974 88.1603 17.9864C88.5284 18.371 88.7963 18.792 88.9639 19.2493C89.1316 19.7067 89.2024 20.1825 89.1766 20.6767C89.1544 21.163 89.0366 21.6341 88.823 22.0902L88.6938 22.3662C88.484 22.8142 88.2031 23.205 87.8511 23.5385C87.5029 23.864 87.0988 24.1101 86.639 24.2768C86.1871 24.4473 85.6929 24.5202 85.1562 24.4955C84.6232 24.4629 84.0631 24.3106 83.4758 24.0386ZM84.2345 22.4185C84.6126 22.5936 84.9638 22.6589 85.2882 22.6144C85.6125 22.5699 85.9065 22.4334 86.1701 22.205C86.4417 21.9804 86.6599 21.692 86.8248 21.34C87.0009 20.964 87.0861 20.6043 87.0805 20.2609C87.0786 19.9096 86.9883 19.5903 86.8095 19.303C86.6388 19.0195 86.3724 18.7939 86.0104 18.6263C85.6564 18.4623 85.3113 18.4048 84.9752 18.4535C84.6391 18.5023 84.3352 18.6391 84.0636 18.8637C83.8037 19.0841 83.5858 19.3824 83.4097 19.7584C83.2448 20.1104 83.1593 20.4602 83.1532 20.8079C83.147 21.1555 83.2352 21.4689 83.4177 21.7482C83.6002 22.0274 83.8725 22.2508 84.2345 22.4185Z" fill="white"/>
<path d="M89.9274 27.2093L94.2437 21.3609L95.6066 22.3557L93.7556 24.8637L93.7235 24.8402C94.3326 24.0148 94.9778 23.506 95.6592 23.3136C96.3477 23.1265 97.0283 23.2783 97.7008 23.7692L97.9262 23.9337L96.8392 25.4065L96.4099 25.0932C95.9377 24.7485 95.4783 24.6103 95.0317 24.6784C94.5904 24.7394 94.1938 25.0083 93.842 25.485L91.6445 28.4626L89.9274 27.2093Z" fill="white"/>
<path d="M97.7106 34.0794C97.2864 33.628 96.9886 33.1559 96.8171 32.6631C96.6516 32.1767 96.5894 31.6969 96.6307 31.2237C96.6845 30.751 96.816 30.3027 97.0251 29.8789C97.2467 29.4556 97.5294 29.0842 97.8731 28.7649L98.0676 28.5841C98.4243 28.2527 98.8192 27.9944 99.2525 27.8092C99.6984 27.6245 100.157 27.5244 100.628 27.5091C101.1 27.4938 101.568 27.5845 102.032 27.7813C102.509 27.9784 102.95 28.2931 103.356 28.7251C103.889 29.2926 104.208 29.8903 104.312 30.5182C104.429 31.1466 104.376 31.7568 104.155 32.3487C103.941 32.9347 103.59 33.4536 103.104 33.9055L102.579 34.3936L98.1707 29.7022L99.0559 28.8797L102.582 32.6328L101.701 32.5094C102.019 32.2142 102.249 31.916 102.391 31.6148C102.533 31.3136 102.578 31.0186 102.525 30.7295C102.484 30.4409 102.34 30.1645 102.091 29.9001C101.837 29.6292 101.56 29.4575 101.261 29.385C100.962 29.3125 100.648 29.3393 100.317 29.4655C99.9925 29.5857 99.6585 29.8055 99.3148 30.1248C98.997 30.42 98.7606 30.7243 98.6055 31.0375C98.4569 31.3447 98.4086 31.6553 98.4607 31.9692C98.5128 32.2832 98.6842 32.5949 98.9751 32.9045C99.2416 33.1882 99.5149 33.3692 99.7948 33.4473C100.075 33.5254 100.326 33.5214 100.549 33.4353L101.885 34.8572C101.455 35.1112 100.995 35.2549 100.504 35.2883C100.013 35.3217 99.5295 35.2398 99.0528 35.0426C98.576 34.8454 98.1286 34.5244 97.7106 34.0794Z" fill="white"/>
<path d="M104.462 42.0373L114.654 41.1175L116.058 44.3358L108.468 51.2185L107.567 49.1539L114.032 43.4496L114.051 44.1918L113.367 42.6251L113.91 43.1703L105.331 44.029L104.462 42.0373ZM107.642 43.306L109.568 43.1966L111.083 46.6699L109.693 48.0059L107.642 43.306Z" fill="white"/>
<path d="M109.639 58.2756C109.547 57.6914 109.59 57.1578 109.766 56.6751C109.95 56.191 110.26 55.7859 110.694 55.4597C111.128 55.1335 111.685 54.9088 112.367 54.7855L112.405 55.0341L109.446 55.492L109.186 53.8308L118.788 52.3449L119.116 54.4378L114.236 55.193L113.526 54.7936C114.258 54.7071 114.889 54.748 115.418 54.9162C115.958 55.0917 116.384 55.3785 116.698 55.7766C117.02 56.1732 117.225 56.6506 117.313 57.2088C117.389 57.6971 117.366 58.1517 117.243 58.5727C117.131 59.0009 116.93 59.3804 116.64 59.711C116.359 60.0403 116.007 60.3136 115.583 60.5311C115.16 60.7573 114.686 60.9111 114.16 60.9925L113.87 61.0373C113.344 61.1187 112.845 61.1155 112.373 61.0277C111.903 60.9487 111.473 60.7874 111.085 60.5438C110.707 60.3076 110.389 59.9995 110.132 59.6195C109.884 59.2381 109.719 58.7901 109.639 58.2756ZM111.316 57.4535C111.371 57.811 111.508 58.107 111.724 58.3415C111.942 58.5847 112.22 58.756 112.559 58.8554C112.906 58.9535 113.282 58.9713 113.685 58.9089C114.097 58.8451 114.445 58.7153 114.729 58.5196C115.013 58.3238 115.217 58.0779 115.341 57.7818C115.476 57.493 115.515 57.1699 115.459 56.8123C115.41 56.4984 115.289 56.2134 115.096 55.9574C114.903 55.7015 114.653 55.508 114.345 55.377C114.047 55.2534 113.701 55.2221 113.307 55.2831L112.82 55.3584C112.443 55.4168 112.132 55.5542 111.887 55.7707C111.653 55.9945 111.488 56.2568 111.391 56.5576C111.294 56.8584 111.269 57.157 111.316 57.4535Z" fill="white"/>
<path d="M110.011 68.3173C110.066 67.6842 110.213 67.1299 110.45 66.6543C110.696 66.1794 111.007 65.7854 111.382 65.4722C111.756 65.1678 112.171 64.9467 112.629 64.809C113.095 64.672 113.576 64.6248 114.071 64.6675L114.376 64.6938C114.88 64.7372 115.349 64.8663 115.785 65.081C116.229 65.3052 116.608 65.6037 116.923 65.9763C117.237 66.3577 117.47 66.803 117.622 67.3122C117.782 67.8221 117.836 68.3804 117.783 68.987C117.729 69.6113 117.579 70.1565 117.333 70.6225C117.096 71.0982 116.79 71.4926 116.415 71.8058C116.04 72.119 115.615 72.3481 115.139 72.4931C114.672 72.6389 114.187 72.69 113.683 72.6466L113.378 72.6203C112.882 72.5777 112.417 72.449 111.982 72.2343C111.555 72.0203 111.184 71.727 110.869 71.3544C110.553 70.9906 110.315 70.5537 110.155 70.0438C110.003 69.5346 109.955 68.9591 110.011 68.3173ZM111.802 68.4716C111.766 68.8848 111.824 69.2354 111.977 69.5232C112.13 69.811 112.36 70.0389 112.666 70.207C112.971 70.3839 113.318 70.4892 113.707 70.5227C114.123 70.5585 114.492 70.515 114.814 70.3922C115.146 70.2702 115.417 70.0765 115.627 69.8111C115.836 69.5545 115.958 69.2284 115.993 68.8327C116.026 68.4459 115.963 68.1038 115.801 67.8064C115.64 67.509 115.407 67.2719 115.102 67.095C114.805 66.9276 114.448 66.8261 114.033 66.7903C113.644 66.7567 113.284 66.7966 112.953 66.9098C112.623 67.0231 112.357 67.2128 112.155 67.4789C111.954 67.745 111.836 68.0759 111.802 68.4716Z" fill="white"/>
<path d="M108.319 77.7895C108.583 76.9934 109.044 76.4661 109.7 76.2076C110.364 75.9519 111.219 75.9957 112.264 76.339L116.283 77.6595L115.615 79.6707L111.494 78.3169C111.124 78.1951 110.794 78.203 110.505 78.3405C110.217 78.478 110.014 78.7228 109.897 79.0747C109.777 79.4351 109.793 79.7657 109.946 80.0667C110.098 80.3678 110.368 80.5819 110.756 80.7093L114.826 82.0465L114.158 84.0577L107.231 81.782L107.761 80.1856L110.681 81.1449L110.635 81.2831C109.936 81.0533 109.381 80.7688 108.97 80.4294C108.565 80.1011 108.307 79.7236 108.197 79.2969C108.086 78.8702 108.117 78.3971 108.29 77.8775L108.319 77.7895Z" fill="white"/>
<path d="M104.081 87.7842C104.443 87.146 104.812 86.6742 105.189 86.3687C105.574 86.0675 106.004 85.9286 106.479 85.9521C106.958 85.9875 107.519 86.185 108.161 86.5446L113.751 89.6769L112.777 91.3954L107.117 88.2241C106.816 88.0551 106.54 88.002 106.291 88.0648C106.045 88.1397 105.839 88.3232 105.673 88.6153L105.144 89.5496L103.578 88.6723L104.081 87.7842ZM111.22 86.9975L112.577 87.7578L110.015 92.2789L108.658 91.5186L111.22 86.9975Z" fill="white"/>
<path d="M95.9717 97.6488C96.6464 97.0355 97.3334 96.6383 98.0325 96.4571C98.7311 96.2885 99.4142 96.3252 100.082 96.5674C100.749 96.8097 101.373 97.2467 101.954 97.8786L105.843 102.11L104.231 103.574L100.289 99.2847C100.001 98.972 99.6909 98.752 99.3574 98.6247C99.0234 98.5098 98.6881 98.4917 98.3516 98.5703C98.0086 98.655 97.6733 98.8461 97.3458 99.1438C97.0117 99.4475 96.7902 99.7624 96.6812 100.089C96.5657 100.421 96.5538 100.754 96.6454 101.09C96.737 101.425 96.9296 101.752 97.2229 102.071L101.166 106.361L99.5541 107.826L95.6653 103.595C95.0846 102.963 94.7028 102.305 94.5201 101.623C94.3374 100.94 94.3618 100.26 94.5934 99.5831C94.831 98.9128 95.2904 98.268 95.9717 97.6488Z" fill="white"/>
<path d="M87.2623 104.079C88.1705 103.578 88.984 103.372 89.7028 103.46C90.4216 103.549 90.9836 103.92 91.3889 104.574L89.7355 105.486C89.5926 105.302 89.3712 105.187 89.0713 105.14C88.7679 105.106 88.4028 105.206 87.9758 105.441C87.6498 105.621 87.4121 105.823 87.2628 106.046C87.1099 106.282 87.0916 106.504 87.2077 106.712C87.311 106.897 87.4742 106.999 87.6975 107.017C87.925 107.043 88.2613 106.964 88.7062 106.779L89.2327 106.55C90.0442 106.203 90.7408 106.097 91.3225 106.23C91.8964 106.368 92.334 106.707 92.6351 107.248C92.8846 107.695 92.9807 108.132 92.9233 108.557C92.866 108.982 92.6824 109.381 92.3725 109.753C92.0549 110.13 91.64 110.46 91.1276 110.742C90.3048 111.196 89.54 111.38 88.8333 111.295C88.1309 111.218 87.5787 110.846 87.1769 110.18L88.8303 109.269C88.9775 109.46 89.183 109.574 89.4467 109.61C89.7147 109.654 90.0311 109.576 90.396 109.374C90.6832 109.216 90.8821 109.036 90.9926 108.834C91.1032 108.632 91.1068 108.438 91.0036 108.253C90.9046 108.075 90.7556 107.981 90.5565 107.969C90.3574 107.958 90.0802 108.025 89.7249 108.17L89.1984 108.4C88.3671 108.747 87.6373 108.867 87.009 108.759C86.3808 108.651 85.9032 108.304 85.5762 107.717C85.3396 107.293 85.2496 106.858 85.3061 106.413C85.3669 105.976 85.5635 105.555 85.8957 105.15C86.2323 104.752 86.6879 104.395 87.2623 104.079Z" fill="white"/>
<path d="M73.3101 114.289L75.5894 115.324L75.8946 116.802L74.2098 118.646L73.1435 117.431L74.6005 116.458L74.5363 116.147L72.8142 115.836L73.3101 114.289ZM76.3021 119.368L76.0622 116.889L77.2005 115.887L79.6469 116.414L79.1168 117.928L77.5465 117.167L77.3048 117.379L77.8876 119.017L76.3021 119.368ZM79.1944 114.223L77.155 115.666L75.7114 115.191L74.9499 112.819L76.5435 112.507L76.6568 114.241L76.9628 114.341L78.0917 113.029L79.1944 114.223Z" fill="white"/>
<path d="M63.4576 110.455L61.9395 120L58.9679 119.533L57.6247 113.826L57.3749 113.787L54.3527 118.807L51.3286 118.331L52.8467 108.786L54.9768 109.121L53.6812 117.267L53.3829 117.193L56.9043 111.408L58.9554 111.73L60.5226 118.316L60.1897 118.291L61.4853 110.145L63.4576 110.455Z" fill="white"/>
<path d="M46.5303 105.965C47.1096 106.233 47.5833 106.559 47.9515 106.944C48.3159 107.336 48.582 107.761 48.7497 108.218C48.9094 108.672 48.9761 109.136 48.9498 109.611C48.9197 110.093 48.7998 110.558 48.5901 111.007L48.4609 111.283C48.2474 111.739 47.9647 112.133 47.6128 112.467C47.2491 112.805 46.8373 113.057 46.3775 113.224C45.9096 113.387 45.4092 113.452 44.8762 113.42C44.3395 113.395 43.7936 113.255 43.2384 112.998C42.6672 112.733 42.2034 112.406 41.847 112.018C41.4788 111.633 41.2109 111.212 41.0431 110.755C40.8754 110.298 40.8044 109.822 40.8302 109.327C40.8522 108.841 40.97 108.37 41.1835 107.914L41.3127 107.638C41.5224 107.19 41.8032 106.799 42.1551 106.465C42.5033 106.14 42.9073 105.894 43.3671 105.727C43.8189 105.556 44.3132 105.483 44.8499 105.508C45.3828 105.54 45.943 105.693 46.5303 105.965ZM45.7719 107.585C45.3938 107.41 45.0426 107.344 44.7182 107.389C44.3939 107.434 44.1 107.57 43.8364 107.799C43.5648 108.023 43.3466 108.312 43.1819 108.664C43.0058 109.04 42.9207 109.4 42.9264 109.743C42.9283 110.094 43.0187 110.414 43.1976 110.701C43.3683 110.984 43.6347 111.21 43.9968 111.377C44.3508 111.541 44.6959 111.599 45.032 111.55C45.3681 111.501 45.672 111.364 45.9435 111.139C46.2034 110.919 46.4213 110.621 46.5973 110.245C46.7621 109.893 46.8475 109.543 46.8536 109.195C46.8597 108.848 46.7714 108.534 46.5889 108.255C46.4063 107.976 46.134 107.752 45.7719 107.585Z" fill="white"/>
<path d="M40.0788 102.795L35.7636 108.644L34.4005 107.65L36.251 105.141L36.2832 105.165C35.6742 105.99 35.0291 106.499 34.3477 106.692C33.6592 106.879 32.9787 106.727 32.3061 106.237L32.0807 106.072L33.1673 104.599L33.5967 104.912C34.0689 105.257 34.5284 105.395 34.9749 105.327C35.4163 105.266 35.8128 104.997 36.1645 104.52L38.3615 101.542L40.0788 102.795Z" fill="white"/>
<path d="M32.2942 95.9265C32.7184 96.3778 33.0164 96.8498 33.188 97.3427C33.3536 97.829 33.4158 98.3088 33.3746 98.7819C33.3209 99.2547 33.1895 99.703 32.9805 100.127C32.759 100.55 32.4764 100.922 32.1327 101.241L31.9382 101.422C31.5816 101.753 31.1867 102.012 30.7535 102.197C30.3077 102.382 29.8491 102.482 29.3776 102.497C28.9062 102.513 28.4383 102.422 27.9741 102.225C27.4973 102.028 27.0559 101.714 26.6499 101.282C26.1166 100.714 25.7978 100.117 25.6935 99.4889C25.5767 98.8606 25.6288 98.2504 25.8498 97.6584C26.0644 97.0724 26.4147 96.5534 26.901 96.1014L27.4262 95.6132L31.8349 100.304L30.9499 101.126L27.4229 97.374L28.3041 97.4972C27.9864 97.7925 27.7565 98.0908 27.6144 98.392C27.4723 98.6931 27.4278 98.9882 27.4808 99.2773C27.5212 99.5658 27.6657 99.8423 27.9141 100.107C28.1687 100.377 28.4454 100.549 28.7443 100.622C29.0432 100.694 29.3581 100.667 29.6889 100.541C30.0132 100.421 30.3472 100.201 30.6908 99.8814C31.0085 99.5861 31.2448 99.2818 31.3999 98.9686C31.5484 98.6613 31.5966 98.3507 31.5445 98.0368C31.4924 97.7228 31.3209 97.4111 31.03 97.1016C30.7633 96.818 30.4901 96.6371 30.2101 96.559C29.9302 96.4809 29.679 96.485 29.4563 96.5712L28.12 95.1495C28.5493 94.8954 29.0094 94.7516 29.5003 94.7181C29.9912 94.6847 30.475 94.7665 30.9518 94.9635C31.4286 95.1606 31.8761 95.4816 32.2942 95.9265Z" fill="white"/>
<path d="M25.5414 87.9697L15.3499 88.8915L13.9451 85.6735L21.5339 78.7894L22.435 80.8537L15.9717 86.5593L15.9525 85.8172L16.6363 87.3836L16.0936 86.8386L24.6721 85.9782L25.5414 87.9697ZM22.3612 86.7017L20.4354 86.8115L18.9193 83.3385L20.3097 82.0022L22.3612 86.7017Z" fill="white"/>
<path d="M20.3615 71.7322C20.453 72.3165 20.4108 72.85 20.235 73.3328C20.0503 73.8169 19.7411 74.2221 19.3072 74.5483C18.8733 74.8746 18.3157 75.0994 17.6345 75.2228L17.5955 74.9743L20.555 74.5158L20.8153 76.177L11.2134 77.6647L10.8855 75.5718L15.7654 74.8157L16.4746 75.215C15.7427 75.3016 15.1121 75.2608 14.5828 75.0928C14.0433 74.9173 13.6167 74.6306 13.3028 74.2326C12.9802 73.836 12.7752 73.3586 12.6878 72.8005C12.6113 72.3122 12.6344 71.8576 12.757 71.4366C12.8696 71.0083 13.0706 70.6288 13.3601 70.2982C13.6408 69.9688 13.9932 69.6954 14.4172 69.4779C14.8398 69.2516 15.3142 69.0977 15.8403 69.0162L16.1297 68.9714C16.6558 68.8899 17.1548 68.8929 17.6266 68.9806C18.097 69.0596 18.5264 69.2208 18.9149 69.4643C19.2932 69.7005 19.6109 70.0085 19.868 70.3885C20.1164 70.7698 20.2808 71.2177 20.3615 71.7322ZM18.685 72.5547C18.629 72.1971 18.4928 71.9011 18.2764 71.6667C18.0587 71.4236 17.7804 71.2523 17.4415 71.153C17.0938 71.055 16.7183 71.0373 16.3149 71.0998C15.9028 71.1636 15.5549 71.2934 15.2712 71.4892C14.9875 71.685 14.7835 71.931 14.6593 72.2271C14.5249 72.5159 14.4857 72.8391 14.5417 73.1966C14.5909 73.5105 14.7119 73.7955 14.9046 74.0514C15.0974 74.3074 15.3478 74.5008 15.6557 74.6318C15.9535 74.7553 16.2997 74.7865 16.6943 74.7254L17.181 74.65C17.558 74.5916 17.8688 74.4541 18.1133 74.2376C18.3477 74.0137 18.5132 73.7514 18.6098 73.4506C18.7064 73.1498 18.7314 72.8512 18.685 72.5547Z" fill="white"/>
<path d="M19.9876 61.6909C19.9326 62.324 19.7864 62.8783 19.549 63.354C19.3029 63.8289 18.9925 64.223 18.6178 64.5362C18.244 64.8407 17.8283 65.0619 17.371 65.1997C16.9047 65.3368 16.4241 65.384 15.9289 65.3415L15.6239 65.3152C15.1199 65.2719 14.6501 65.1429 14.2145 64.9283C13.7708 64.7041 13.3914 64.4057 13.0764 64.0332C12.7622 63.6518 12.5292 63.2066 12.3775 62.6975C12.2169 62.1876 12.163 61.6293 12.2158 61.0226C12.2701 60.3983 12.4199 59.8531 12.6653 59.387C12.9026 58.9113 13.2086 58.5169 13.5833 58.2036C13.9579 57.8904 14.3831 57.6612 14.859 57.5161C15.3259 57.3702 15.8114 57.3189 16.3154 57.3622L16.6204 57.3885C17.1156 57.4311 17.581 57.5597 18.0166 57.7743C18.4434 57.9882 18.8143 58.2814 19.1293 58.6539C19.4451 59.0177 19.6832 59.4545 19.8438 59.9644C19.9955 60.4735 20.0434 61.049 19.9876 61.6909ZM18.1972 61.5369C18.2331 61.1237 18.1745 60.7732 18.0214 60.4854C17.8682 60.1976 17.6386 59.9697 17.3326 59.8016C17.0273 59.6248 16.6801 59.5196 16.2911 59.4862C15.8755 59.4504 15.5065 59.494 15.184 59.6169C14.8527 59.739 14.582 59.9327 14.3719 60.1981C14.1625 60.4547 14.0406 60.7809 14.0062 61.1766C13.9726 61.5634 14.0364 61.9055 14.1976 62.2029C14.3588 62.5002 14.592 62.7373 14.8973 62.9141C15.1946 63.0814 15.551 63.1829 15.9665 63.2187C16.3556 63.2521 16.7153 63.2122 17.0459 63.0989C17.3764 62.9856 17.6423 62.7958 17.8436 62.5297C18.0449 62.2635 18.1628 61.9326 18.1972 61.5369Z" fill="white"/>
<path d="M21.6776 52.2182C21.4133 53.0144 20.9532 53.5418 20.2972 53.8004C19.6328 54.0562 18.7781 54.0126 17.7332 53.6695L13.7134 52.3497L14.3811 50.3384L18.502 51.6914C18.8728 51.8131 19.2026 51.8052 19.4912 51.6677C19.7799 51.5301 19.9827 51.2853 20.0995 50.9333C20.2192 50.573 20.2028 50.2423 20.0504 49.9413C19.898 49.6403 19.6279 49.4262 19.2403 49.2989L15.1699 47.9625L15.8377 45.9512L22.7649 48.2256L22.2348 49.8221L19.3148 48.8633L19.3607 48.725C20.0602 48.9547 20.6152 49.2392 21.026 49.5785C21.431 49.9067 21.6889 50.2841 21.7996 50.7108C21.9103 51.1375 21.8793 51.6106 21.7068 52.1302L21.6776 52.2182Z" fill="white"/>
<path d="M25.913 42.2228C25.5515 42.861 25.1824 43.3329 24.8056 43.6385C24.4211 43.9397 23.9911 44.0787 23.5154 44.0554C23.0363 44.02 22.4759 43.8226 21.8341 43.4631L16.2434 40.3319L17.2167 38.6133L22.877 41.7835C23.1786 41.9524 23.4541 42.0054 23.7036 41.9425C23.9497 41.8677 24.1555 41.6841 24.321 41.3919L24.8501 40.4576L26.416 41.3346L25.913 42.2228ZM18.7749 43.0108L17.4178 42.2508L19.9786 37.7292L21.3356 38.4892L18.7749 43.0108Z" fill="white"/>
<path d="M34.0213 32.3566C33.3467 32.97 32.6599 33.3674 31.9607 33.5487C31.2622 33.7175 30.5791 33.6808 29.9116 33.4387C29.2441 33.1966 28.6199 32.7597 28.039 32.1279L24.1494 27.8975L25.7606 26.4325L29.7041 30.7215C29.9915 31.0341 30.302 31.2541 30.6355 31.3814C30.9695 31.4962 31.3048 31.5142 31.6412 31.4355C31.9842 31.3508 32.3195 31.1596 32.647 30.8618C32.981 30.5581 33.2025 30.2431 33.3114 29.9169C33.4268 29.5847 33.4387 29.251 33.347 28.9159C33.2553 28.5807 33.0627 28.2535 32.7693 27.9344L28.8258 23.6454L30.437 22.1804L34.3266 26.4108C34.9074 27.0425 35.2893 27.6998 35.4722 28.3826C35.655 29.0654 35.6307 29.7452 35.3993 30.4221C35.1618 31.0924 34.7025 31.7373 34.0213 32.3566Z" fill="white"/>
<path d="M42.7285 25.9249C41.8203 26.4256 41.0069 26.6319 40.2881 26.5438C39.5693 26.4558 39.0071 26.0845 38.6017 25.4301L40.2549 24.5186C40.3979 24.7022 40.6193 24.8173 40.9192 24.8638C41.2226 24.8984 41.5877 24.798 42.0146 24.5626C42.3406 24.3829 42.5783 24.1812 42.7276 23.9576C42.8804 23.722 42.8987 23.5 42.7825 23.2916C42.6792 23.1063 42.5159 23.0046 42.2927 22.9864C42.0652 22.9605 41.7289 23.0399 41.284 23.2247L40.7575 23.4544C39.9461 23.8009 39.2495 23.9074 38.6678 23.7741C38.0938 23.6364 37.6563 23.2974 37.355 22.7571C37.1054 22.3095 37.0093 21.8731 37.0665 21.4479C37.1238 21.0228 37.3073 20.6239 37.6171 20.2513C37.9346 19.8744 38.3495 19.5448 38.8618 19.2623C39.6845 18.8087 40.4493 18.6242 41.156 18.7088C41.8585 18.7857 42.4107 19.1574 42.8127 19.8238L41.1594 20.7353C41.0122 20.544 40.8067 20.4302 40.543 20.394C40.2749 20.3501 39.9585 20.4286 39.5937 20.6298C39.3066 20.7881 39.1077 20.9684 38.9972 21.1706C38.8867 21.3728 38.8831 21.5665 38.9863 21.7518C39.0853 21.9293 39.2344 22.0237 39.4335 22.035C39.6326 22.0463 39.9098 21.9793 40.265 21.8339L40.7915 21.6042C41.6227 21.2569 42.3525 21.1371 42.9808 21.2447C43.6091 21.3524 44.0867 21.6996 44.4138 22.2862C44.6505 22.7107 44.7406 23.1454 44.6842 23.5903C44.6235 24.0274 44.427 24.4485 44.0948 24.8537C43.7582 25.2512 43.3028 25.6082 42.7285 25.9249Z" fill="white"/>
<path d="M56.679 15.7121L54.3995 14.6779L54.094 13.1996L55.7785 11.3552L56.845 12.5698L55.3882 13.5433L55.4525 13.8545L57.1746 14.1647L56.679 15.7121ZM53.6861 10.6341L53.9265 13.1123L52.7883 14.1152L50.3419 13.5882L50.8716 12.0743L52.4421 12.8345L52.6837 12.6229L52.1006 10.9852L53.6861 10.6341ZM50.7948 15.7796L52.8339 14.3357L54.2775 14.811L55.0395 17.1825L53.446 17.4947L53.3323 15.761L53.0263 15.6614L51.8977 16.9733L50.7948 15.7796Z" fill="white"/>
<defs>
<linearGradient id="paint0_linear_160_98280" x1="0" y1="65" x2="130" y2="65" gradientUnits="userSpaceOnUse">
<stop stop-color="#0F2453"/>
<stop offset="1" stop-color="#3F82FB"/>
</linearGradient>
</defs>
</svg>
