<svg width="130" height="130" viewBox="0 0 130 130" fill="none" xmlns="http://www.w3.org/2000/svg">
<circle cx="65" cy="65" r="65" fill="url(#paint0_linear_209_742)"/>
<circle cx="65" cy="65" r="30" fill="white"/>
<path fill-rule="evenodd" clip-rule="evenodd" d="M50.4181 54.2678L62.5811 75.7322L65.0003 80L76.4964 59.7096L74.5777 56.324L73.4124 54.2678L70.9943 50H66.157L68.5762 54.2678L71.6602 59.7096L65.0003 71.4633L55.2554 54.2678H59.4042L64.7225 63.6525L67.1417 59.3847L64.2415 54.2678L61.8234 50H56.9861H52.8373H48L50.4181 54.2678Z" fill="#3F82FB"/>
<path fill-rule="evenodd" clip-rule="evenodd" d="M77.1609 50H75.0195L76.0908 51.8889L77.4376 54.2678L78.5089 56.1577L79.5801 54.2678L81.9982 50H77.1609Z" fill="#3F82FB"/>
<path d="M70.8581 20.0894C70.0277 19.9902 69.332 19.765 68.7711 19.4138C68.2113 19.0543 67.7711 18.6214 67.4508 18.115C67.1315 17.6003 66.9127 17.0642 66.7944 16.5067C66.6856 15.942 66.6628 15.4042 66.7261 14.8935L66.7597 14.6216C66.8291 14.0614 66.9897 13.5205 67.2416 12.9988C67.4945 12.4689 67.8372 12.0041 68.2698 11.6043C68.7107 11.2055 69.2369 10.9089 69.8484 10.7144C70.4692 10.5127 71.1781 10.4594 71.975 10.5546C72.8054 10.6538 73.5206 10.8938 74.1203 11.2748C74.7201 11.6557 75.1751 12.1406 75.4852 12.7294C75.8048 13.3109 75.9532 13.9682 75.9305 14.7012L73.8544 14.4532C73.8406 14.0837 73.7446 13.7588 73.5665 13.4783C73.3885 13.1979 73.1403 12.9676 72.8221 12.7875C72.5123 12.6084 72.1519 12.4943 71.7409 12.4452C71.3298 12.3961 70.9563 12.4226 70.6202 12.5245C70.2841 12.6265 69.9912 12.7922 69.7414 13.0215C69.5001 13.2518 69.2988 13.5371 69.1375 13.8773C68.9856 14.2103 68.8831 14.591 68.8301 15.0193C68.7781 15.4395 68.7846 15.8332 68.8498 16.2004C68.9244 16.5605 69.0544 16.8853 69.2399 17.175C69.4348 17.4574 69.6871 17.6882 69.9969 17.8673C70.3077 18.0382 70.6728 18.1487 71.0923 18.1988C71.7298 18.2749 72.2855 18.1866 72.7594 17.9339C73.2418 17.6822 73.5622 17.2941 73.7208 16.7697L75.7843 17.0161C75.6272 17.6661 75.3258 18.2446 74.8799 18.7514C74.4435 19.2511 73.882 19.6271 73.1953 19.8795C72.518 20.1246 71.7389 20.1946 70.8581 20.0894Z" fill="white"/>
<path d="M80.8684 22.3719C80.2964 22.1682 79.8196 21.9014 79.4381 21.5714C79.0594 21.2336 78.7713 20.8574 78.5738 20.4429C78.3842 20.0311 78.2819 19.6019 78.267 19.1553C78.255 18.7008 78.3296 18.2551 78.4908 17.8182L78.5902 17.549C78.7543 17.1043 78.9892 16.7113 79.295 16.3699C79.6115 16.0236 79.9809 15.7535 80.403 15.5595C80.8331 15.3683 81.3023 15.2661 81.8105 15.2528C82.3216 15.2317 82.8513 15.3187 83.3994 15.5138C83.9635 15.7146 84.4309 15.9825 84.8016 16.3175C85.1831 16.6475 85.4727 17.0198 85.6702 17.4343C85.8677 17.8489 85.975 18.2887 85.9922 18.7538C86.0121 19.2111 85.9401 19.6621 85.7759 20.1068L85.6766 20.376C85.5153 20.8129 85.2818 21.202 84.9761 21.5434C84.6732 21.8769 84.3108 22.1407 83.8886 22.3347C83.4744 22.5315 83.0118 22.6405 82.5007 22.6616C81.9924 22.6749 81.4483 22.5783 80.8684 22.3719ZM81.4515 20.7919C81.8249 20.9248 82.1635 20.9571 82.4674 20.8887C82.7712 20.8203 83.0385 20.6683 83.2693 20.4327C83.508 20.1999 83.6907 19.9119 83.8174 19.5686C83.9528 19.2019 84.0033 18.858 83.969 18.5368C83.9376 18.2079 83.8251 17.9162 83.6313 17.6619C83.4455 17.4104 83.1738 17.221 82.8163 17.0937C82.4668 16.9693 82.1347 16.9438 81.82 17.0171C81.5053 17.0905 81.2286 17.2436 80.9899 17.4764C80.762 17.7042 80.5803 18.0015 80.445 18.3682C80.3183 18.7115 80.2667 19.0462 80.2901 19.3723C80.3136 19.6984 80.4236 19.9847 80.6203 20.2313C80.8169 20.4778 81.094 20.6647 81.4515 20.7919Z" fill="white"/>
<path d="M86.8871 24.5312L90.5315 18.724L91.9019 19.5534L90.3391 22.0438L90.2419 21.985C90.6144 21.3915 91.0002 20.9427 91.3996 20.6385C91.8061 20.3387 92.2297 20.1857 92.6704 20.1794C93.111 20.1732 93.558 20.3072 94.0112 20.5815L94.0867 20.6272C94.7773 21.0452 95.1628 21.5856 95.2432 22.2484C95.3352 22.9085 95.0996 23.6871 94.5366 24.5844L92.455 27.9013L90.7286 26.8563L92.8699 23.444C93.065 23.1332 93.1311 22.8222 93.0682 22.5112C93.0053 22.2002 92.8156 21.9489 92.4991 21.7573C92.1754 21.5614 91.8485 21.5049 91.5185 21.5879C91.2001 21.6681 90.939 21.8707 90.735 22.1957L88.6136 25.5762L86.8871 24.5312Z" fill="white"/>
<path d="M96.926 31.6582C96.3987 31.204 96.0288 30.7749 95.8163 30.371C95.6094 29.9609 95.5634 29.5405 95.6784 29.1097C95.8054 28.6781 96.1001 28.2035 96.5627 27.6857L100.592 23.1752L102.011 24.3984L97.9323 28.965C97.7149 29.2083 97.6113 29.4501 97.6213 29.6906C97.6432 29.9303 97.7749 30.1541 98.0163 30.3621L98.7881 31.027L97.6596 32.2903L96.926 31.6582ZM97.5857 24.9737L98.5637 23.8788L102.299 27.0968L101.321 28.1916L97.5857 24.9737Z" fill="white"/>
<path d="M102.123 37.01L103.704 35.7226L103.485 35.4639L105.202 34.0652C105.475 33.8427 105.626 33.6119 105.655 33.3729C105.684 33.1339 105.579 32.8739 105.342 32.5928C105.223 32.4523 105.064 32.2697 104.863 32.0451C104.662 31.8204 104.453 31.592 104.235 31.3599C104.017 31.1278 103.818 30.918 103.638 30.7306L104.955 29.6577C105.092 29.7941 105.25 29.9559 105.431 30.1433C105.611 30.3308 105.793 30.5272 105.978 30.7327C106.162 30.9382 106.333 31.1336 106.489 31.3188C106.942 31.8553 107.245 32.3692 107.396 32.8605C107.553 33.3581 107.553 33.8325 107.396 34.2838C107.246 34.7297 106.923 35.154 106.429 35.5566L103.151 38.2268L102.123 37.01ZM100.571 35.4445C100.252 35.0677 100.04 34.6799 99.9338 34.2812C99.8331 33.8889 99.8421 33.5096 99.9609 33.1433C100.086 32.7717 100.328 32.4402 100.685 32.1488C101.076 31.8309 101.478 31.6703 101.892 31.667C102.313 31.6584 102.733 31.7852 103.152 32.0476C103.578 32.3046 103.988 32.6663 104.382 33.1326L105.328 34.2536L104.46 34.9609L103.505 33.8303C103.279 33.562 103.035 33.41 102.774 33.3744C102.526 33.3398 102.287 33.4152 102.06 33.6007C101.845 33.7755 101.729 33.9888 101.711 34.2406C101.705 34.4935 101.815 34.754 102.042 35.0223C102.188 35.1948 102.346 35.3242 102.518 35.4107C102.702 35.4982 102.906 35.5258 103.131 35.4934C103.356 35.4609 103.608 35.3425 103.885 35.1381L103.802 35.82C103.405 36.0901 103.017 36.255 102.639 36.3147C102.267 36.3808 101.905 36.3417 101.552 36.1974C101.205 36.0596 100.878 35.8086 100.571 35.4445Z" fill="white"/>
<path d="M106.022 43.156C105.73 42.6412 105.56 42.1452 105.512 41.6681C105.475 41.1942 105.533 40.7496 105.684 40.3343C105.836 39.9191 106.061 39.5489 106.36 39.2238C106.667 38.8947 107.02 38.6211 107.418 38.4031L107.629 38.2881C108.042 38.062 108.474 37.9113 108.925 37.8359C109.383 37.7565 109.831 37.763 110.271 37.8553C110.71 37.9476 111.121 38.1358 111.505 38.42C111.892 38.7115 112.226 39.1037 112.505 39.5967C112.81 40.1333 112.972 40.6668 112.992 41.1971C113.02 41.7234 112.915 42.2128 112.678 42.6652C112.441 43.1176 112.088 43.4915 111.617 43.787L110.649 42.0794C110.905 41.901 111.073 41.6671 111.15 41.3777C111.24 41.0915 111.185 40.7743 110.988 40.4263C110.824 40.1363 110.612 39.9338 110.354 39.8187C110.099 39.7109 109.816 39.6806 109.504 39.7276C109.192 39.7746 108.859 39.895 108.505 40.0888C108.18 40.2664 107.909 40.4714 107.693 40.7037C107.484 40.932 107.359 41.1808 107.318 41.4501C107.289 41.7225 107.362 42.0146 107.539 42.3264C107.671 42.5585 107.822 42.732 107.994 42.8471C108.177 42.9655 108.369 43.0314 108.57 43.0449C108.783 43.0616 108.995 43.0264 109.207 42.9391L110.168 44.6358C109.654 44.8886 109.133 44.993 108.605 44.9491C108.085 44.9013 107.598 44.7256 107.146 44.4221C106.701 44.1146 106.326 43.6925 106.022 43.156Z" fill="white"/>
<path d="M109.747 51.008C109.511 50.3594 109.4 49.8079 109.414 49.3535C109.436 48.8963 109.604 48.5069 109.917 48.1852C110.242 47.8686 110.734 47.5943 111.394 47.3624L117.147 45.3421L117.783 47.0885L111.959 49.134C111.648 49.2429 111.438 49.4049 111.328 49.6199C111.229 49.8399 111.233 50.0983 111.341 50.3953L111.687 51.3447L110.076 51.9105L109.747 51.008ZM113.63 45.4799L115.027 44.9895L116.7 49.5843L115.303 50.0747L113.63 45.4799Z" fill="white"/>
<path d="M111.707 60.183C111.632 59.398 111.832 58.7713 112.305 58.3029C112.786 57.8337 113.549 57.5512 114.592 57.4556L118.605 57.0878L118.794 59.0708L114.68 59.4479C114.309 59.4819 114.025 59.6121 113.826 59.8388C113.627 60.0654 113.543 60.3522 113.576 60.6993C113.61 61.0546 113.751 61.3333 114 61.5356C114.248 61.7379 114.566 61.8213 114.953 61.7858L119.017 61.4134L119.205 63.3964L112.289 64.0303L112.139 62.4563L115.055 62.1891L115.068 62.3254C114.369 62.3894 113.776 62.3521 113.288 62.2135C112.808 62.0824 112.439 61.8537 112.178 61.5275C111.918 61.2013 111.764 60.782 111.715 60.2697L111.707 60.183Z" fill="white"/>
<path d="M111.848 69.4835C111.936 68.5164 112.207 67.7778 112.661 67.2677C113.114 66.7576 113.709 66.5182 114.444 66.5494L114.284 68.3101C114.062 68.3239 113.852 68.4347 113.655 68.6423C113.466 68.859 113.351 69.1946 113.309 69.6492C113.278 69.9964 113.311 70.2867 113.408 70.5203C113.513 70.7628 113.679 70.894 113.907 70.914C114.109 70.9317 114.277 70.859 114.41 70.6957C114.552 70.5332 114.669 70.231 114.76 69.7891L114.859 69.2604C115.018 68.4495 115.305 67.854 115.722 67.474C116.137 67.1022 116.64 66.9422 117.229 66.9939C117.717 67.0368 118.114 67.1924 118.421 67.461C118.727 67.7295 118.945 68.0819 119.075 68.5183C119.204 68.9629 119.244 69.4579 119.194 70.0035C119.115 70.8796 118.853 71.569 118.408 72.0715C117.972 72.5748 117.383 72.8064 116.64 72.7661L116.8 71.0055C117.03 70.9924 117.23 70.8933 117.4 70.7082C117.578 70.5239 117.684 70.2375 117.72 69.849C117.747 69.5432 117.711 69.2941 117.609 69.102C117.508 68.9098 117.357 68.8048 117.155 68.7871C116.961 68.7701 116.807 68.8357 116.691 68.9838C116.576 69.132 116.481 69.382 116.407 69.7337L116.308 70.2624C116.139 71.0891 115.844 71.7173 115.423 72.1469C115.003 72.5766 114.472 72.7633 113.833 72.7071C113.37 72.6665 112.977 72.507 112.654 72.2288C112.34 71.9512 112.111 71.577 111.968 71.1062C111.832 70.636 111.792 70.0951 111.848 69.4835Z" fill="white"/>
<path d="M113.113 84.5943L115.09 83.2839L116.449 83.7657L117.119 86.0146L115.597 86.2691L115.526 84.6293L115.239 84.5278L114.13 85.7491L113.113 84.5943ZM118.747 84.6996L116.604 83.675L116.351 82.2749L117.997 80.5823L118.97 81.7479L117.569 82.6274L117.621 82.924L119.249 83.2628L118.747 84.6996ZM115.982 79.868L116.148 82.2031L115.042 83.1213L112.727 82.565L113.264 81.1408L114.736 81.901L114.97 81.7059L114.459 80.1617L115.982 79.868Z" fill="white"/>
<path d="M102.877 92.7997C103.377 92.1407 103.921 91.6592 104.51 91.3551C105.105 91.0559 105.706 90.8953 106.313 90.8733C106.926 90.8562 107.509 90.9355 108.06 91.1112C108.614 91.2985 109.101 91.5458 109.521 91.8531L109.744 92.0166C110.205 92.3536 110.604 92.7589 110.94 93.2324C111.283 93.7109 111.524 94.2337 111.663 94.8008C111.797 95.3747 111.799 95.9705 111.667 96.5884C111.538 97.2179 111.233 97.8488 110.754 98.4812C110.254 99.1402 109.687 99.6309 109.053 99.9535C108.419 100.276 107.764 100.423 107.09 100.396C106.417 100.38 105.762 100.181 105.126 99.7978L106.375 98.1503C106.708 98.3217 107.043 98.4011 107.379 98.3883C107.716 98.3755 108.042 98.2781 108.359 98.0961C108.671 97.9208 108.951 97.67 109.198 97.3438C109.445 97.0177 109.607 96.686 109.684 96.3488C109.76 96.0116 109.759 95.6796 109.68 95.3529C109.596 95.0329 109.444 94.7197 109.223 94.4134C109.004 94.1188 108.718 93.8426 108.366 93.5849C108.02 93.3321 107.669 93.1425 107.312 93.0159C106.956 92.9009 106.605 92.8507 106.257 92.8652C105.91 92.8913 105.581 92.992 105.269 93.1674C104.964 93.3477 104.685 93.6042 104.433 93.9371C104.049 94.443 103.852 94.9607 103.84 95.4902C103.823 96.0263 104.008 96.4921 104.393 96.8874L103.151 98.5249C102.654 98.0686 102.293 97.5246 102.065 96.893C101.84 96.273 101.786 95.6077 101.904 94.8969C102.023 94.1977 102.347 93.4986 102.877 92.7997Z" fill="white"/>
<path d="M95.8938 100.219C96.3567 99.8308 96.8284 99.5555 97.3091 99.3928C97.7952 99.2364 98.2706 99.1762 98.7352 99.2124C99.1934 99.2539 99.6238 99.3787 100.027 99.5866C100.435 99.8008 100.793 100.085 101.1 100.438L101.289 100.656C101.602 101.016 101.833 101.411 101.985 101.84C102.135 102.282 102.192 102.731 102.155 103.187C102.111 103.649 101.97 104.1 101.731 104.54C101.497 104.987 101.158 105.396 100.715 105.768C100.258 106.15 99.7903 106.417 99.3105 106.568C98.8299 106.731 98.3573 106.794 97.8927 106.758C97.428 106.722 96.9856 106.596 96.5654 106.381C96.1507 106.172 95.7871 105.888 95.4745 105.528L95.2852 105.31C94.9781 104.957 94.749 104.565 94.5978 104.135C94.4522 103.712 94.3977 103.272 94.4345 102.816C94.4649 102.365 94.597 101.916 94.8309 101.469C95.0702 101.029 95.4245 100.612 95.8938 100.219ZM97.0044 101.497C96.7023 101.75 96.5064 102.023 96.4168 102.317C96.3272 102.61 96.3297 102.913 96.4243 103.227C96.5125 103.546 96.6772 103.844 96.9186 104.122C97.1763 104.418 97.4558 104.631 97.7571 104.761C98.0638 104.897 98.3776 104.944 98.6985 104.905C99.013 104.87 99.3148 104.732 99.6041 104.49C99.887 104.253 100.074 103.982 100.164 103.677C100.255 103.372 100.256 103.06 100.168 102.741C100.079 102.434 99.9052 102.132 99.6474 101.835C99.4061 101.557 99.1353 101.348 98.835 101.207C98.5347 101.066 98.2269 101.018 97.9115 101.064C97.5961 101.11 97.2937 101.255 97.0044 101.497Z" fill="white"/>
<path d="M91.0127 104.296L94.361 110.273L92.9506 111.035L91.5147 108.472L91.6147 108.418C91.9569 109.029 92.1642 109.58 92.2369 110.071C92.3021 110.566 92.2289 111.004 92.0171 111.383C91.8054 111.763 91.4664 112.079 90.9999 112.331L90.9222 112.373C90.2115 112.757 89.5427 112.82 88.9159 112.562C88.2858 112.315 87.712 111.73 87.1947 110.806L85.2823 107.393L87.0592 106.433L89.0266 109.944C89.2058 110.264 89.4487 110.474 89.7552 110.574C90.0618 110.673 90.3779 110.635 90.7037 110.459C91.0369 110.279 91.248 110.028 91.3372 109.705C91.4231 109.393 91.3723 109.07 91.1849 108.736L89.2359 105.257L91.0127 104.296Z" fill="white"/>
<path d="M79.7495 109.353C80.4121 109.127 80.9747 109.023 81.4373 109.041C81.9026 109.067 82.2975 109.236 82.622 109.547C82.9413 109.869 83.2158 110.355 83.4456 111.006L85.4474 116.674L83.6631 117.282L81.6364 111.543C81.5284 111.237 81.3655 111.029 81.1477 110.919C80.9246 110.819 80.6614 110.821 80.358 110.924L79.388 111.254L78.8273 109.667L79.7495 109.353ZM85.3408 113.219L85.8267 114.595L81.1323 116.194L80.6464 114.818L85.3408 113.219Z" fill="white"/>
<path d="M72.4263 111.139L72.7804 113.126L73.1175 113.068L73.5022 115.226C73.5634 115.569 73.6925 115.812 73.8896 115.955C74.0866 116.098 74.3683 116.138 74.7345 116.075C74.9177 116.044 75.1583 115.998 75.4565 115.939C75.7547 115.879 76.0605 115.814 76.3739 115.743C76.6872 115.672 76.9715 115.607 77.2266 115.546L77.5217 117.201C77.3332 117.251 77.1113 117.305 76.8562 117.366C76.6011 117.427 76.3369 117.485 76.0637 117.54C75.7905 117.596 75.5332 117.644 75.2918 117.686C74.5926 117.806 73.9883 117.809 73.4789 117.694C72.9612 117.581 72.5417 117.346 72.2206 116.988C71.901 116.638 71.6858 116.153 71.575 115.532L70.8406 111.412L72.4263 111.139ZM74.5806 110.592C75.0717 110.508 75.5198 110.519 75.925 110.626C76.3218 110.735 76.6527 110.931 76.9176 111.214C77.184 111.505 77.3573 111.875 77.4374 112.325C77.5248 112.816 77.4672 113.238 77.2646 113.593C77.0634 113.956 76.7428 114.252 76.3029 114.479C75.8645 114.714 75.3415 114.884 74.7338 114.989L73.2731 115.24L73.0785 114.149L74.5518 113.895C74.9014 113.835 75.1566 113.703 75.3175 113.498C75.4714 113.303 75.5229 113.063 75.4719 112.777C75.4238 112.507 75.2929 112.302 75.0792 112.162C74.8586 112.031 74.5735 111.996 74.2239 112.056C73.9992 112.095 73.806 112.166 73.6443 112.269C73.4758 112.383 73.35 112.543 73.267 112.751C73.184 112.959 73.164 113.232 73.2071 113.57L72.6452 113.162C72.6038 112.688 72.6504 112.276 72.785 111.924C72.9113 111.574 73.1256 111.284 73.4279 111.056C73.7219 110.828 74.1062 110.674 74.5806 110.592Z" fill="white"/>
<path d="M65.0208 111.414C65.6207 111.421 66.1435 111.522 66.5892 111.717C67.0264 111.921 67.391 112.191 67.683 112.526C67.9751 112.861 68.1906 113.237 68.3296 113.653C68.4685 114.078 68.5355 114.514 68.5305 114.962L68.5279 115.199C68.5227 115.664 68.4417 116.107 68.2849 116.528C68.1279 116.958 67.8998 117.338 67.6003 117.666C67.3009 117.995 66.9304 118.252 66.4889 118.439C66.0389 118.625 65.5267 118.715 64.9521 118.708C64.3268 118.702 63.7747 118.575 63.2958 118.33C62.8167 118.092 62.4359 117.76 62.1534 117.334C61.8708 116.908 61.7157 116.42 61.688 115.872L63.6779 115.894C63.7082 116.201 63.8321 116.46 64.0495 116.67C64.2583 116.888 64.5655 116.999 64.9711 117.003C65.3091 117.007 65.5931 116.927 65.8231 116.763C66.0446 116.6 66.2119 116.373 66.325 116.084C66.4381 115.795 66.4969 115.451 66.5013 115.053C66.5054 114.688 66.4584 114.355 66.3603 114.055C66.2622 113.764 66.1042 113.534 65.8863 113.365C65.66 113.205 65.3651 113.123 65.0018 113.119C64.7314 113.117 64.5027 113.16 64.3158 113.249C64.1204 113.346 63.9668 113.478 63.8551 113.642C63.7349 113.815 63.6608 114.014 63.633 114.238L61.6557 114.216C61.6874 113.652 61.8535 113.156 62.154 112.728C62.4545 112.308 62.8511 111.98 63.3439 111.745C63.8365 111.518 64.3955 111.407 65.0208 111.414Z" fill="white"/>
<path d="M56.2133 110.702C56.904 110.821 57.447 110.999 57.8421 111.236C58.2358 111.481 58.4974 111.817 58.6268 112.244C58.7465 112.677 58.7456 113.233 58.6241 113.912L57.5654 119.821L55.7054 119.5L56.7772 113.517C56.8343 113.198 56.795 112.939 56.6593 112.738C56.5138 112.544 56.2829 112.42 55.9667 112.366L54.9555 112.191L55.252 110.536L56.2133 110.702ZM59.1836 116.751L58.9266 118.186L54.0331 117.34L54.29 115.906L59.1836 116.751Z" fill="white"/>
<path d="M47.1138 107.831C47.845 108.156 48.3006 108.637 48.4805 109.273C48.6569 109.916 48.529 110.706 48.0966 111.644L46.4336 115.25L44.5862 114.428L46.2911 110.731C46.4445 110.399 46.4703 110.091 46.3685 109.809C46.2667 109.527 46.0542 109.314 45.7309 109.17C45.3999 109.023 45.0834 109.005 44.7815 109.117C44.4795 109.228 44.2483 109.458 44.088 109.806L42.404 113.457L40.5566 112.635L43.4225 106.421L44.8888 107.074L43.6808 109.693L43.5538 109.637C43.8432 109.009 44.1701 108.521 44.5347 108.173C44.8881 107.83 45.2735 107.628 45.691 107.567C46.1084 107.507 46.5557 107.583 47.033 107.795L47.1138 107.831Z" fill="white"/>
<path d="M38.899 103.387C39.7105 103.942 40.2293 104.539 40.4553 105.179C40.6814 105.819 40.5983 106.445 40.2061 107.056L38.7288 106.046C38.8265 105.85 38.8325 105.617 38.7466 105.346C38.6489 105.077 38.4094 104.812 38.0279 104.551C37.7366 104.352 37.4635 104.236 37.2087 104.204C36.9421 104.173 36.7436 104.25 36.6133 104.434C36.4974 104.597 36.4785 104.776 36.5566 104.971C36.6298 105.173 36.8392 105.422 37.1848 105.719L37.6032 106.066C38.2415 106.603 38.6255 107.144 38.7551 107.687C38.8777 108.226 38.77 108.734 38.4321 109.211C38.1522 109.606 37.8175 109.867 37.4281 109.995C37.0387 110.124 36.6189 110.135 36.1686 110.029C35.7114 109.919 35.2539 109.707 34.7962 109.395C34.061 108.892 33.5814 108.327 33.3575 107.698C33.1287 107.077 33.2163 106.459 33.6203 105.846L35.0976 106.856C34.995 107.058 34.9835 107.278 35.0631 107.514C35.1378 107.758 35.3382 107.991 35.6641 108.213C35.9208 108.389 36.1592 108.481 36.3793 108.49C36.5995 108.499 36.7675 108.422 36.8834 108.258C36.9944 108.101 37.013 107.937 36.9391 107.765C36.8653 107.594 36.6913 107.389 36.4172 107.151L35.9988 106.804C35.3514 106.25 34.9421 105.688 34.7709 105.116C34.5998 104.544 34.6976 103.999 35.0645 103.481C35.33 103.106 35.6657 102.851 36.0717 102.714C36.4729 102.583 36.9173 102.574 37.4049 102.685C37.8878 102.802 38.3858 103.037 38.899 103.387Z" fill="white"/>
<path d="M24.8976 96.9779L25.0807 99.3139L23.9826 100.236L21.6611 99.6966L22.1878 98.2713L23.6745 99.0208L23.9057 98.8267L23.3726 97.2761L24.8976 96.9779ZM22.0205 101.737L23.9865 100.413L25.3512 100.889L26.0362 103.131L24.5236 103.386L24.4374 101.754L24.1488 101.653L23.0449 102.875L22.0205 101.737ZM27.6641 101.763L25.5149 100.751L25.2483 99.3533L26.8848 97.651L27.8803 98.8132L26.4798 99.6948L26.5373 99.9905L28.1565 100.318L27.6641 101.763Z" fill="white"/>
<path d="M22.6726 84.1792C23.0095 84.9312 23.1673 85.6337 23.1459 86.2866C23.1168 86.9429 22.9623 87.5355 22.6823 88.0645C22.3946 88.5969 22.0368 89.0552 21.6089 89.4395C21.1699 89.8196 20.7106 90.1133 20.2311 90.3205L19.9758 90.4308C19.4499 90.6581 18.8942 90.7985 18.3089 90.8519C17.7158 90.9087 17.1338 90.8565 16.563 90.6951C15.9888 90.5262 15.4605 90.2332 14.9782 89.816C14.4847 89.3946 14.0764 88.823 13.7531 88.1014C13.4161 87.3494 13.2614 86.6229 13.289 85.922C13.3165 85.221 13.509 84.5893 13.8663 84.0269C14.2125 83.4603 14.7123 82.9995 15.3657 82.6446L16.208 84.5246C15.8915 84.7249 15.6559 84.9717 15.5012 85.2652C15.3465 85.5588 15.2715 85.8858 15.2762 86.2465C15.2774 86.5995 15.3614 86.9622 15.5281 87.3344C15.6949 87.7066 15.9087 88.0086 16.1695 88.2404C16.4303 88.4723 16.7248 88.6351 17.0531 88.729C17.3779 88.8153 17.7305 88.8398 18.1107 88.8024C18.4798 88.7608 18.8655 88.6531 19.2677 88.4793C19.6621 88.3088 20.0035 88.1023 20.2919 87.8599C20.5691 87.6132 20.7872 87.3376 20.9462 87.0331C21.0941 86.7244 21.1674 86.3936 21.1662 86.0405C21.1572 85.6908 21.0677 85.326 20.8975 84.9462C20.6388 84.3689 20.278 83.9446 19.8148 83.6733C19.3483 83.3944 18.8449 83.3218 18.3047 83.4554L17.4675 81.5868C18.1169 81.3878 18.7773 81.3473 19.4487 81.4652C20.1089 81.5788 20.7247 81.8612 21.2961 82.3124C21.8564 82.7594 22.3152 83.3816 22.6726 84.1792Z" fill="white"/>
<path d="M19.5647 74.543C19.6779 75.1301 19.6872 75.6689 19.5926 76.1595C19.4897 76.6516 19.307 77.0868 19.0445 77.465C18.7804 77.8351 18.4566 78.1402 18.0729 78.3805C17.6809 78.6223 17.2524 78.7865 16.7875 78.873L16.501 78.9262C16.0278 79.0142 15.5637 79.0161 15.1088 78.9317C14.6441 78.8408 14.2191 78.6664 13.834 78.4087C13.4473 78.1427 13.1186 77.7984 12.8479 77.3758C12.5689 76.9547 12.3752 76.4628 12.2667 75.9002C12.1551 75.3213 12.1515 74.7898 12.256 74.3059C12.3506 73.8153 12.5292 73.3809 12.7917 73.0027C13.0541 72.6244 13.3847 72.3096 13.7835 72.0581C14.1739 71.8081 14.6057 71.6391 15.079 71.5511L15.3654 71.4978C15.8304 71.4113 16.2903 71.4103 16.7451 71.4946C17.1917 71.5805 17.6076 71.7523 17.9927 72.0101C18.3762 72.2597 18.7075 72.5951 18.9865 73.0162C19.2572 73.4388 19.4499 73.9478 19.5647 74.543ZM17.8834 74.8557C17.8095 74.4724 17.6652 74.1699 17.4504 73.948C17.2356 73.7261 16.9662 73.5777 16.6421 73.5028C16.3165 73.4198 15.9711 73.4123 15.6057 73.4802C15.2155 73.5528 14.8885 73.6854 14.6246 73.878C14.3524 74.0722 14.1543 74.316 14.0303 74.6094C13.9047 74.8946 13.8772 75.2206 13.948 75.5875C14.0172 75.9463 14.1641 76.2399 14.3888 76.4684C14.6134 76.6969 14.8886 76.8527 15.2142 76.9357C15.5299 77.0122 15.8829 77.0141 16.2731 76.9415C16.6385 76.8736 16.958 76.7466 17.2317 76.5605C17.5055 76.3745 17.7002 76.1356 17.8159 75.8438C17.9317 75.552 17.9542 75.2226 17.8834 74.8557Z" fill="white"/>
<path d="M18.3833 68.3213L11.4381 68.2123L11.4638 66.6316L14.4421 66.6783L14.4403 66.7904C13.7306 66.7792 13.1406 66.6828 12.6703 66.5011C12.2001 66.3112 11.8497 66.0318 11.619 65.663C11.3884 65.2941 11.2773 64.8484 11.2858 64.3256L11.2873 64.2385C11.3002 63.4419 11.5762 62.8404 12.1153 62.4338C12.646 62.0189 13.4479 61.8198 14.5209 61.8366L18.4878 61.8989L18.4554 63.8903L14.3744 63.8263C14.0027 63.8205 13.6968 63.9236 13.4567 64.1356C13.2166 64.3476 13.0936 64.6362 13.0876 65.0013C13.0816 65.3747 13.1992 65.6795 13.4404 65.9156C13.6733 66.1434 13.9841 66.2603 14.3728 66.2664L18.4157 66.3299L18.3833 68.3213Z" fill="white"/>
<path d="M19.49 56.2013C19.3619 56.8786 19.1754 57.4101 18.9306 57.7959C18.6774 58.1802 18.3329 58.4339 17.8971 58.557C17.4545 58.6704 16.8884 58.6642 16.1989 58.5384L10.1921 57.4428L10.537 55.6192L16.6185 56.7285C16.9425 56.7876 17.2072 56.7514 17.4125 56.6201C17.6111 56.479 17.7397 56.2535 17.7983 55.9434L17.9858 54.9521L19.6682 55.259L19.49 56.2013ZM13.3025 59.061L11.8444 58.795L12.7517 53.9974L14.2098 54.2634L13.3025 59.061Z" fill="white"/>
<path d="M21.5306 49.0636L19.5977 48.383L19.4822 48.6994L17.3823 47.9599C17.0482 47.8422 16.7691 47.8321 16.5451 47.9295C16.321 48.027 16.1462 48.2475 16.0207 48.5912C15.9579 48.7631 15.8792 48.991 15.7845 49.2751C15.6898 49.5591 15.5962 49.8523 15.5037 50.1548C15.4112 50.4572 15.3287 50.7323 15.2562 50.9801L13.6455 50.4129C13.6952 50.2276 13.7563 50.0111 13.8288 49.7633C13.9013 49.5156 13.9806 49.2614 14.0668 49.0008C14.153 48.7402 14.2374 48.4966 14.3201 48.2701C14.5597 47.6139 14.8562 47.0968 15.2097 46.7188C15.566 46.3329 15.9818 46.0914 16.4572 45.9943C16.9245 45.8944 17.4605 45.9509 18.065 46.1638L22.074 47.5755L21.5306 49.0636ZM20.949 51.173C20.7807 51.6339 20.5489 52.0107 20.2535 52.3034C19.961 52.5883 19.6239 52.7738 19.2424 52.8599C18.853 52.9431 18.4395 52.9077 18.002 52.7537C17.5247 52.5856 17.1792 52.3273 16.9653 51.9787C16.7435 51.6273 16.6409 51.2076 16.6574 50.7197C16.666 50.2291 16.7744 49.6986 16.9826 49.1283L17.4832 47.7574L18.5451 48.1313L18.0402 49.514C17.9205 49.8421 17.9113 50.1254 18.0127 50.3639C18.1091 50.5917 18.2964 50.7547 18.5748 50.8527C18.8373 50.9452 19.0835 50.9349 19.3133 50.8218C19.5379 50.6982 19.7102 50.4723 19.83 50.1442C19.907 49.9333 19.9396 49.7332 19.9279 49.544C19.9111 49.3441 19.8312 49.1573 19.6882 48.9835C19.5452 48.8097 19.3135 48.6576 18.993 48.5271L19.6329 48.2499C20.072 48.4486 20.4139 48.6924 20.6585 48.9813C20.906 49.2624 21.0562 49.5886 21.1091 49.9599C21.165 50.3234 21.1116 50.7278 20.949 51.173Z" fill="white"/>
<path d="M24.9412 42.6406C24.6379 43.149 24.2892 43.5447 23.8952 43.8277C23.4981 44.0994 23.0789 44.2766 22.6378 44.3594C22.1966 44.4422 21.7575 44.4397 21.3203 44.3516C20.8759 44.2594 20.4568 44.1001 20.063 43.8735L19.8552 43.754C19.4469 43.5191 19.0953 43.2302 18.8003 42.8874C18.4981 42.5404 18.2759 42.1576 18.1337 41.7392C17.9916 41.3208 17.9477 40.8772 18.0021 40.4084C18.0608 39.9324 18.2354 39.4509 18.5259 38.964C18.8419 38.4342 19.2274 38.026 19.6824 37.7395C20.13 37.4488 20.6123 37.2887 21.1294 37.2592C21.6465 37.2296 22.1542 37.339 22.6525 37.5872L21.6465 39.2735C21.3597 39.1469 21.0696 39.1243 20.7763 39.2056C20.4799 39.2756 20.2292 39.4824 20.0242 39.8261C19.8533 40.1125 19.7832 40.3943 19.8136 40.6715C19.8484 40.9416 19.9656 41.1966 20.1653 41.4365C20.365 41.6764 20.6398 41.897 20.9897 42.0984C21.3106 42.283 21.6278 42.4078 21.9416 42.4729C22.248 42.5338 22.5297 42.5131 22.7866 42.4108C23.0404 42.2972 23.2592 42.0864 23.4428 41.7785C23.5795 41.5494 23.6548 41.333 23.6685 41.1293C23.6793 40.9143 23.6395 40.7183 23.5492 40.5413C23.4559 40.353 23.3172 40.1914 23.1332 40.0567L24.1327 38.3811C24.6157 38.6879 24.972 39.0756 25.2016 39.5443C25.424 40.0089 25.517 40.5096 25.4807 41.0466C25.4371 41.5794 25.2573 42.1107 24.9412 42.6406Z" fill="white"/>
<path d="M29.9326 35.5004C29.4844 36.0302 29.0576 36.4048 28.6522 36.6243C28.2403 36.8384 27.8136 36.8948 27.372 36.7934C26.9293 36.6804 26.4383 36.4038 25.8988 35.9636L21.1997 32.1292L22.4066 30.7026L27.1642 34.5847C27.4177 34.7915 27.6667 34.8868 27.9112 34.8705C28.1546 34.8426 28.3789 34.7073 28.5841 34.4647L29.2402 33.6892L30.5564 34.7631L29.9326 35.5004ZM23.1109 35.032L21.9702 34.1012L25.1456 30.348L26.2862 31.2788L23.1109 35.032Z" fill="white"/>
<path d="M36.9761 29.1552C36.3271 29.6192 35.6767 29.7712 35.025 29.611C34.3682 29.4442 33.7314 28.9448 33.1147 28.1129L30.7422 24.9128L32.3817 23.7405L34.8139 27.0211C35.0327 27.3163 35.2922 27.4901 35.5923 27.5424C35.8924 27.5947 36.1859 27.5183 36.4728 27.3131C36.7666 27.1031 36.9385 26.8416 36.9887 26.5285C37.0388 26.2155 36.9495 25.9047 36.7207 25.5961L34.3184 22.3557L35.9579 21.1834L40.0463 26.6981L38.745 27.6286L37.0216 25.304L37.1343 25.2234C37.5471 25.7802 37.8176 26.3002 37.9459 26.7834C38.076 27.2549 38.0647 27.6839 37.9121 28.0702C37.7595 28.4565 37.4714 28.801 37.0478 29.1039L36.9761 29.1552Z" fill="white"/>
<path d="M44.9608 24.3301C44.0691 24.7496 43.2842 24.8981 42.606 24.7755C41.9278 24.653 41.4146 24.2733 41.0665 23.6365L42.6897 22.8727C42.8151 23.053 43.019 23.1733 43.3014 23.2336C43.5878 23.2829 43.9406 23.209 44.3597 23.0117C44.6798 22.8611 44.9172 22.685 45.0718 22.4834C45.2304 22.2708 45.2604 22.0634 45.1619 21.8613C45.0742 21.6817 44.9248 21.5772 44.7137 21.5477C44.4989 21.5107 44.1748 21.5666 43.7414 21.7154L43.2279 21.9017C42.437 22.1819 41.7688 22.2432 41.2235 22.0857C40.6858 21.9246 40.2891 21.5821 40.0335 21.0583C39.8218 20.6242 39.7552 20.2092 39.8338 19.8133C39.9124 19.4175 40.1095 19.0533 40.4251 18.7207C40.7484 18.3846 41.1615 18.0982 41.6644 17.8615C42.4722 17.4814 43.2096 17.3507 43.8766 17.4694C44.5398 17.5806 45.0436 17.9601 45.3877 18.6079L43.7645 19.3717C43.6355 19.184 43.4466 19.0658 43.198 19.0171C42.9458 18.961 42.6405 19.0172 42.2824 19.1857C42.0004 19.3184 41.8012 19.4766 41.6846 19.6602C41.5681 19.8439 41.5536 20.0255 41.6413 20.2052C41.7252 20.3773 41.8615 20.4742 42.0501 20.4959C42.2387 20.5176 42.506 20.47 42.852 20.3532L43.3654 20.1669C44.1752 19.887 44.8757 19.8151 45.4668 19.9511C46.0578 20.0871 46.4921 20.4395 46.7696 21.0082C46.9704 21.4199 47.0313 21.8329 46.9524 22.2473C46.8698 22.6542 46.6592 23.0386 46.3203 23.4005C45.9779 23.7549 45.5247 24.0648 44.9608 24.3301Z" fill="white"/>
<path d="M57.5789 15.5493L55.4228 14.5463L55.1522 13.1523L56.7813 11.4407L57.78 12.597L56.3796 13.4928L56.4366 13.7863L58.0719 14.101L57.5789 15.5493ZM54.799 10.7347L54.9939 13.0679L53.8965 13.9957L51.5746 13.4674L52.0997 12.0511L53.5845 12.7869L53.8175 12.5912L53.2847 11.0436L54.799 10.7347ZM51.9757 15.5339L53.9369 14.2036L55.3049 14.6698L55.9978 16.9098L54.4764 17.182L54.3919 15.5504L54.1019 15.4526L53.0094 16.6709L51.9757 15.5339Z" fill="white"/>
<defs>
<linearGradient id="paint0_linear_209_742" x1="0" y1="65" x2="130" y2="65" gradientUnits="userSpaceOnUse">
<stop stop-color="#0F2453"/>
<stop offset="1" stop-color="#3F82FB"/>
</linearGradient>
</defs>
</svg>
