<svg width="100" height="100" viewBox="0 0 100 100" fill="none" xmlns="http://www.w3.org/2000/svg">
<g opacity="0.1">
<path d="M37.3573 16.0714L40.4288 8.14286C40.9468 6.80046 41.8581 5.64579 43.0434 4.83009C44.2287 4.01438 45.6328 3.57568 47.0716 3.57143H52.9288C54.3676 3.57568 55.7717 4.01438 56.957 4.83009C58.1423 5.64579 59.0536 6.80046 59.5716 8.14286L62.6431 16.0714L73.0716 22.0714L81.5002 20.7857C82.9036 20.5952 84.3321 20.8262 85.6039 21.4495C86.8757 22.0727 87.9336 23.0599 88.6431 24.2857L91.5002 29.2857C92.2323 30.5311 92.5696 31.9691 92.4676 33.4101C92.3656 34.8512 91.8291 36.2274 90.9288 37.3571L85.7145 44V56L91.0716 62.6429C91.9719 63.7726 92.5085 65.1488 92.6105 66.5899C92.7125 68.0309 92.3752 69.4689 91.6431 70.7143L88.7859 75.7143C88.0765 76.9401 87.0186 77.9274 85.7468 78.5506C84.4749 79.1738 83.0465 79.4048 81.6431 79.2143L73.2145 77.9286L62.7859 83.9286L59.7145 91.8571C59.1965 93.1995 58.2852 94.3542 57.0998 95.1699C55.9145 95.9856 54.5105 96.4243 53.0716 96.4286H47.0716C45.6328 96.4243 44.2287 95.9856 43.0434 95.1699C41.8581 94.3542 40.9468 93.1995 40.4288 91.8571L37.3573 83.9286L26.9288 77.9286L18.5002 79.2143C17.0967 79.4048 15.6683 79.1738 14.3965 78.5506C13.1247 77.9274 12.0668 76.9401 11.3573 75.7143L8.5002 70.7143C7.76806 69.4689 7.43075 68.0309 7.53276 66.5899C7.63478 65.1488 8.17134 63.7726 9.07162 62.6429L14.2859 56V44L8.92877 37.3571C8.02848 36.2274 7.49193 34.8512 7.38991 33.4101C7.28789 31.9691 7.62521 30.5311 8.35734 29.2857L11.2145 24.2857C11.9239 23.0599 12.9818 22.0727 14.2536 21.4495C15.5255 20.8262 16.9539 20.5952 18.3573 20.7857L26.7859 22.0714L37.3573 16.0714ZM35.7145 50C35.7145 52.8254 36.5523 55.5874 38.1221 57.9367C39.6918 60.286 41.9229 62.117 44.5333 63.1983C47.1437 64.2795 50.016 64.5624 52.7872 64.0112C55.5584 63.46 58.1038 62.0994 60.1017 60.1015C62.0996 58.1036 63.4602 55.5582 64.0114 52.787C64.5626 50.0158 64.2797 47.1435 63.1985 44.5331C62.1172 41.9227 60.2862 39.6916 57.9369 38.1219C55.5876 36.5521 52.8256 35.7143 50.0002 35.7143C46.2114 35.7143 42.5778 37.2194 39.8987 39.8985C37.2196 42.5776 35.7145 46.2112 35.7145 50V50Z" stroke="#0F2453" stroke-width="1.5" stroke-linecap="round" stroke-linejoin="round"/>
</g>
</svg>
