<svg width="20" height="20" viewBox="0 0 20 20" fill="none" xmlns="http://www.w3.org/2000/svg">
<g clip-path="url(#clip0_405_492)">
<path d="M12.1431 13.5716C12.5219 13.5716 12.8853 13.4211 13.1532 13.1532C13.4211 12.8853 13.5716 12.5219 13.5716 12.1431" stroke="#0F2453" stroke-linecap="round" stroke-linejoin="round"/>
<path d="M6.42871 13.5713H8.57157" stroke="#0F2453" stroke-linecap="round" stroke-linejoin="round"/>
<path d="M13.5713 6.42871V8.57157" stroke="#0F2453" stroke-linecap="round" stroke-linejoin="round"/>
<path d="M7.85728 6.42871C7.4784 6.42871 7.11504 6.57922 6.84713 6.84713C6.57922 7.11504 6.42871 7.4784 6.42871 7.85728" stroke="#0F2453" stroke-linecap="round" stroke-linejoin="round"/>
<path d="M0.714355 2.14293C0.714355 1.76405 0.864865 1.40068 1.13277 1.13277C1.40068 0.864865 1.76405 0.714355 2.14293 0.714355H12.1429C12.5218 0.714355 12.8852 0.864865 13.1531 1.13277C13.421 1.40068 13.5715 1.76405 13.5715 2.14293V6.42864H17.8572C18.2361 6.42864 18.5995 6.57915 18.8674 6.84706C19.1353 7.11497 19.2858 7.47833 19.2858 7.85721V17.8572C19.2858 18.2361 19.1353 18.5995 18.8674 18.8674C18.5995 19.1353 18.2361 19.2858 17.8572 19.2858H7.85721C7.47833 19.2858 7.11497 19.1353 6.84706 18.8674C6.57915 18.5995 6.42864 18.2361 6.42864 17.8572V13.5715H2.14293C1.76405 13.5715 1.40068 13.421 1.13277 13.1531C0.864865 12.8852 0.714355 12.5218 0.714355 12.1429V2.14293Z" stroke="#0F2453" stroke-linecap="round" stroke-linejoin="round"/>
<path d="M11.4287 6.42871H13.5716" stroke="#0F2453" stroke-linecap="round" stroke-linejoin="round"/>
<path d="M6.42871 11.4287V13.5716" stroke="#0F2453" stroke-linecap="round" stroke-linejoin="round"/>
</g>
<defs>
<clipPath id="clip0_405_492">
<rect width="20" height="20" fill="white"/>
</clipPath>
</defs>
</svg>
