<svg width="20" height="20" viewBox="0 0 20 20" fill="none" xmlns="http://www.w3.org/2000/svg">
<g clip-path="url(#clip0_160_98733)">
<path d="M15.8064 12.3894C15.397 11.9631 14.9031 11.7352 14.3797 11.7352C13.8605 11.7352 13.3624 11.9589 12.936 12.3852L11.6022 13.7149C11.4924 13.6558 11.3827 13.6009 11.2771 13.546C11.1252 13.47 10.9816 13.3983 10.8592 13.3223C9.60978 12.5287 8.47429 11.4945 7.38524 10.1564C6.8576 9.48951 6.50302 8.92809 6.24553 8.35824C6.59166 8.04166 6.91247 7.71241 7.22484 7.39582C7.34303 7.27763 7.46122 7.15522 7.57941 7.03703C8.46585 6.15059 8.46585 5.00244 7.57941 4.116L6.42704 2.96363C6.29619 2.83277 6.16111 2.6977 6.03447 2.56262C5.78121 2.30091 5.51527 2.03076 5.2409 1.77749C4.83145 1.37226 4.3418 1.15698 3.82682 1.15698C3.31184 1.15698 2.81375 1.37226 2.39163 1.77749C2.38741 1.78171 2.38741 1.78171 2.38319 1.78593L0.948004 3.23378C0.407699 3.77409 0.099556 4.43258 0.0320178 5.19661C-0.0692895 6.42918 0.293728 7.57733 0.572323 8.32869C1.25615 10.1733 2.27766 11.8829 3.80149 13.7149C5.65035 15.9225 7.87489 17.6658 10.416 18.8942C11.3869 19.3543 12.6828 19.8988 14.1306 19.9917C14.2193 19.9959 14.3121 20.0001 14.3965 20.0001C15.3716 20.0001 16.1905 19.6498 16.8321 18.9533C16.8364 18.9449 16.8448 18.9406 16.849 18.9322C17.0685 18.6663 17.3218 18.4257 17.5877 18.1682C17.7692 17.9951 17.955 17.8136 18.1365 17.6236C18.5544 17.1889 18.7739 16.6823 18.7739 16.1631C18.7739 15.6397 18.5501 15.1374 18.1238 14.7153L15.8064 12.3894ZM17.3176 16.8343C17.3134 16.8343 17.3134 16.8385 17.3176 16.8343C17.153 17.0116 16.9841 17.172 16.8026 17.3493C16.5282 17.611 16.2496 17.8853 15.9879 18.1935C15.5616 18.6494 15.0593 18.8647 14.4008 18.8647C14.3375 18.8647 14.2699 18.8647 14.2066 18.8604C12.9529 18.7802 11.7879 18.2906 10.9141 17.8727C8.52495 16.7161 6.42704 15.0741 4.68371 12.993C3.2443 11.2582 2.28188 9.65413 1.64449 7.93191C1.25193 6.88084 1.10841 6.06194 1.17172 5.28948C1.21394 4.7956 1.40389 4.38615 1.75424 4.0358L3.19365 2.59639C3.40049 2.40222 3.61998 2.29669 3.83526 2.29669C4.10119 2.29669 4.31647 2.45709 4.45155 2.59217C4.45577 2.59639 4.45999 2.60061 4.46421 2.60483C4.7217 2.84544 4.96653 3.09448 5.22402 3.36042C5.35487 3.49549 5.48995 3.63057 5.62502 3.76987L6.77739 4.92224C7.22483 5.36968 7.22483 5.78335 6.77739 6.23079C6.65498 6.3532 6.53679 6.47561 6.41438 6.59381C6.0598 6.95682 5.72211 7.29452 5.35487 7.62376C5.34643 7.63221 5.33799 7.63643 5.33377 7.64487C4.97075 8.00789 5.03829 8.36246 5.11427 8.60307C5.11849 8.61573 5.12271 8.62839 5.12693 8.64106C5.42663 9.36709 5.84874 10.0509 6.49036 10.8656L6.49458 10.8698C7.65961 12.305 8.88796 13.4236 10.2429 14.2805C10.416 14.3902 10.5933 14.4789 10.7621 14.5633C10.9141 14.6393 11.0576 14.7111 11.18 14.787C11.1969 14.7955 11.2138 14.8081 11.2307 14.8166C11.3742 14.8883 11.5093 14.9221 11.6486 14.9221C11.9989 14.9221 12.2184 14.7026 12.2902 14.6309L13.7338 13.1872C13.8773 13.0437 14.1053 12.8706 14.3712 12.8706C14.6329 12.8706 14.8482 13.0353 14.9791 13.1788C14.9833 13.183 14.9833 13.183 14.9875 13.1872L17.3134 15.5131C17.7481 15.9436 17.7481 16.3868 17.3176 16.8343Z" fill="white"/>
<path d="M10.8084 4.75765C11.9144 4.94338 12.919 5.4668 13.721 6.26882C14.523 7.07083 15.0422 8.07546 15.2322 9.1814C15.2786 9.45999 15.5192 9.65417 15.7936 9.65417C15.8273 9.65417 15.8569 9.64995 15.8907 9.64572C16.203 9.59507 16.4099 9.29959 16.3592 8.98723C16.1313 7.64913 15.4981 6.42922 14.5315 5.46258C13.5648 4.49594 12.3449 3.86277 11.0068 3.63483C10.6944 3.58417 10.4032 3.79101 10.3483 4.09915C10.2934 4.40729 10.4961 4.707 10.8084 4.75765Z" fill="white"/>
<path d="M19.9771 8.82267C19.6014 6.61923 18.563 4.61419 16.9674 3.0186C15.3718 1.42301 13.3668 0.384613 11.1634 0.00893186C10.8552 -0.0459429 10.564 0.165114 10.5091 0.473257C10.4584 0.785621 10.6653 1.07688 10.9776 1.13175C12.9447 1.46522 14.7387 2.3981 16.1654 3.82062C17.5922 5.24736 18.5208 7.04135 18.8543 9.0084C18.9007 9.28699 19.1413 9.48116 19.4157 9.48116C19.4495 9.48116 19.479 9.47694 19.5128 9.47272C19.8209 9.42629 20.032 9.13081 19.9771 8.82267Z" fill="white"/>
</g>
<defs>
<clipPath id="clip0_160_98733">
<rect width="20" height="20" fill="white"/>
</clipPath>
</defs>
</svg>
