<svg width="24" height="24" viewBox="0 0 24 24" fill="none" xmlns="http://www.w3.org/2000/svg">
<g clip-path="url(#clip0_236_3518)">
<path d="M23.7911 17.4619L21.3311 16.2319L19.7655 12.1594C19.7471 12.1112 19.7189 12.0674 19.6828 12.0306C19.6467 11.9938 19.6033 11.9649 19.5555 11.9456L9.84113 8.0625C9.77321 8.03546 9.69887 8.02886 9.62724 8.04352C9.55562 8.05818 9.48985 8.09345 9.43801 8.145L8.14238 9.44062C8.09152 9.49251 8.05682 9.55805 8.0425 9.62928C8.02819 9.70051 8.03488 9.77437 8.06176 9.84187L11.9449 19.5562C11.9642 19.6041 11.9931 19.6474 12.0299 19.6835C12.0666 19.7197 12.1105 19.7478 12.1586 19.7662L16.2311 21.3319L17.4611 23.7919C17.487 23.8461 17.5256 23.8933 17.5736 23.9296C17.6215 23.9658 17.6775 23.9899 17.7368 24C17.7567 24.0019 17.7768 24.0019 17.7968 24C17.8961 23.9996 17.9911 23.9598 18.0611 23.8894L23.8886 18.0619C23.9315 18.0205 23.9639 17.9695 23.9832 17.9131C24.0024 17.8567 24.0079 17.7965 23.9993 17.7375C23.9892 17.6782 23.965 17.6223 23.9288 17.5743C23.8926 17.5263 23.8454 17.4878 23.7911 17.4619ZM8.84738 9.79312L9.05551 9.58687L13.8911 14.4225C13.5724 14.8741 13.4348 15.4288 13.5054 15.977C13.5761 16.5251 13.8498 17.0269 14.2726 17.3829C14.6953 17.739 15.2363 17.9234 15.7885 17.8998C16.3407 17.8762 16.8639 17.6463 17.2547 17.2555C17.6455 16.8646 17.8755 16.3414 17.8991 15.7892C17.9227 15.237 17.7382 14.696 17.3822 14.2733C17.0261 13.8506 16.5244 13.5768 15.9762 13.5062C15.4281 13.4356 14.8733 13.5732 14.4218 13.8919L9.58613 9.05625L9.79238 8.84812L19.1243 12.5812L20.5961 16.41L16.4093 20.5969L12.5805 19.125L8.84738 9.79312ZM15.693 14.2369C16.03 14.2374 16.3565 14.3547 16.6167 14.5689C16.8769 14.7831 17.0548 15.0809 17.1201 15.4115C17.1854 15.7421 17.134 16.0852 16.9748 16.3822C16.8155 16.6792 16.5582 16.9118 16.2467 17.0404C15.9351 17.169 15.5886 17.1856 15.2662 17.0874C14.9438 16.9891 14.6655 16.7822 14.4786 16.5017C14.2916 16.2213 14.2077 15.8847 14.2411 15.5493C14.2745 15.214 14.4232 14.9006 14.6618 14.6625C14.9355 14.3896 15.3064 14.2365 15.693 14.2369ZM17.8999 22.9912L16.9624 21.1162L21.1118 16.9669L22.9868 17.9044L17.8999 22.9912Z" fill="white"/>
<path d="M7.17352 20.0625C7.10181 19.9947 7.00688 19.957 6.9082 19.957C6.80953 19.957 6.7146 19.9947 6.64289 20.0625L6.16664 20.5388C4.89573 18.8138 4.19461 16.7354 4.161 14.5931C4.12739 12.4508 4.76296 10.3514 5.97914 8.58751C6.34351 8.788 6.76304 8.86502 7.17486 8.80701C7.58668 8.74901 7.96862 8.55911 8.26344 8.26578C8.55825 7.97244 8.75006 7.59146 8.81014 7.17994C8.87021 6.76841 8.7953 6.3485 8.59664 5.98313C10.3606 4.76695 12.46 4.13138 14.6023 4.16499C16.7445 4.1986 18.823 4.89972 20.5479 6.17063L20.0641 6.64125C19.9944 6.71156 19.9553 6.8066 19.9554 6.90563C19.9551 6.95498 19.9646 7.00391 19.9832 7.04959C20.0019 7.09528 20.0294 7.13684 20.0641 7.17188L21.7179 8.8125C21.7882 8.88235 21.8832 8.92155 21.9823 8.92155C22.0813 8.92155 22.1764 8.88235 22.2466 8.8125L23.891 7.16813C23.9259 7.1333 23.9535 7.09194 23.9724 7.04642C23.9913 7.0009 24.001 6.9521 24.001 6.90282C24.001 6.85354 23.9913 6.80474 23.9724 6.75921C23.9535 6.71369 23.9259 6.67233 23.891 6.63751L22.2466 4.99313C22.1764 4.92329 22.0813 4.88408 21.9823 4.88408C21.8832 4.88408 21.7882 4.92329 21.7179 4.99313L21.0823 5.62501C19.5157 4.44619 17.6636 3.70556 15.7162 3.47919C13.7688 3.25281 11.7962 3.54884 10.001 4.33688L12.1629 2.18063C12.408 2.29776 12.6867 2.32427 12.9495 2.25546C13.2123 2.18666 13.4423 2.02698 13.5986 1.80477C13.7549 1.58255 13.8274 1.31216 13.8033 1.04156C13.7792 0.770956 13.66 0.517644 13.4669 0.326558C13.2737 0.135473 13.0192 0.0189676 12.7484 -0.00228851C12.4775 -0.0235446 12.2079 0.0518226 11.9873 0.210443C11.7668 0.369063 11.6095 0.60068 11.5435 0.864206C11.4775 1.12773 11.5069 1.40613 11.6266 1.65001L7.97789 5.30438C7.60742 5.05587 7.16216 4.9437 6.71817 4.98702C6.27417 5.03034 5.859 5.22648 5.54356 5.54192C5.22811 5.85736 5.03198 6.27254 4.98866 6.71653C4.94533 7.16052 5.05751 7.60578 5.30602 7.97626L1.65164 11.625C1.40681 11.5057 1.12761 11.4771 0.863655 11.5442C0.599701 11.6113 0.368088 11.7698 0.209973 11.9916C0.0518573 12.2133 -0.0225197 12.4839 5.81359e-05 12.7554C0.022636 13.0268 0.140706 13.2814 0.333289 13.474C0.525871 13.6666 0.780492 13.7846 1.05191 13.8072C1.32332 13.8298 1.59395 13.7554 1.81571 13.5973C2.03746 13.4392 2.19598 13.2076 2.26309 12.9436C2.33021 12.6797 2.30157 12.4005 2.18227 12.1556L4.34414 9.99938C3.55532 11.7941 3.25835 13.7664 3.48374 15.7138C3.70912 17.6612 4.44874 19.5135 5.62664 21.0806L4.99289 21.7163C4.92305 21.7865 4.88384 21.8816 4.88384 21.9806C4.88384 22.0797 4.92305 22.1747 4.99289 22.245L6.63727 23.8894C6.70727 23.9598 6.80235 23.9996 6.90164 24C6.95113 24 7.00013 23.9903 7.04582 23.9713C7.09152 23.9523 7.13301 23.9245 7.16789 23.8894L8.81414 22.245C8.88399 22.1747 8.92319 22.0797 8.92319 21.9806C8.92319 21.8816 8.88399 21.7865 8.81414 21.7163L7.17352 20.0625ZM21.986 5.78438L23.0998 6.89813L21.986 8.01188L20.8723 6.89813L21.986 5.78438ZM12.3766 0.86813C12.4324 0.811952 12.5035 0.773592 12.5811 0.757919C12.6586 0.742245 12.7391 0.749964 12.8123 0.780096C12.8854 0.810228 12.948 0.861415 12.992 0.927162C13.0361 0.992909 13.0596 1.07025 13.0596 1.14938C13.0596 1.22851 13.0361 1.30585 12.992 1.3716C12.948 1.43735 12.8854 1.48853 12.8123 1.51866C12.7391 1.5488 12.6586 1.55652 12.5811 1.54084C12.5035 1.52517 12.4324 1.48681 12.3766 1.43063C12.3397 1.39371 12.3104 1.34987 12.2903 1.30161C12.2703 1.25335 12.26 1.20162 12.26 1.14938C12.26 1.09714 12.2703 1.04541 12.2903 0.997149C12.3104 0.94889 12.3397 0.905048 12.3766 0.86813ZM6.07664 6.07501C6.18553 5.96559 6.31497 5.87877 6.45751 5.81952C6.60006 5.76028 6.7529 5.72978 6.90727 5.72978C7.06163 5.72978 7.21448 5.76028 7.35702 5.81952C7.49957 5.87877 7.629 5.96559 7.73789 6.07501C7.90249 6.23934 8.01465 6.44882 8.06016 6.67692C8.10568 6.90502 8.08251 7.14149 7.99358 7.35642C7.90466 7.57135 7.75398 7.75507 7.56061 7.88433C7.36723 8.01359 7.13986 8.08259 6.90727 8.08259C6.67467 8.08259 6.4473 8.01359 6.25393 7.88433C6.06056 7.75507 5.90987 7.57135 5.82095 7.35642C5.73203 7.14149 5.70885 6.90502 5.75437 6.67692C5.79988 6.44882 5.91204 6.23934 6.07664 6.07501ZM1.43414 12.9375C1.35758 13.0013 1.25992 13.0343 1.16033 13.0298C1.06075 13.0253 0.966448 12.9837 0.895959 12.9132C0.825471 12.8427 0.783892 12.7484 0.779392 12.6488C0.774892 12.5492 0.807797 12.4516 0.871642 12.375C0.94668 12.3013 1.04768 12.2599 1.15289 12.2599C1.2581 12.2599 1.3591 12.3013 1.43414 12.375C1.47111 12.4119 1.50043 12.4558 1.52044 12.504C1.54044 12.5523 1.55074 12.604 1.55074 12.6563C1.55074 12.7085 1.54044 12.7602 1.52044 12.8085C1.50043 12.8567 1.47111 12.9006 1.43414 12.9375ZM6.90727 23.0869L5.79352 21.9731L6.90727 20.8594L8.02102 21.9731L6.90727 23.0869Z" fill="white"/>
</g>
<defs>
<clipPath id="clip0_236_3518">
<rect width="24" height="24" fill="white"/>
</clipPath>
</defs>
</svg>
