<svg width="100" height="100" viewBox="0 0 100 100" fill="none" xmlns="http://www.w3.org/2000/svg">
<g opacity="0.1">
<path d="M31.8137 95.1298C48.2793 95.1298 61.6273 81.5297 61.6273 64.7531C61.6273 47.9766 48.2793 34.3765 31.8137 34.3765C15.348 34.3765 2 47.9766 2 64.7531C2 81.5297 15.348 95.1298 31.8137 95.1298Z" stroke="#0F2453" stroke-width="1.5" stroke-linecap="round" stroke-linejoin="round"/>
<path d="M69.0808 95.1298C85.5464 95.1298 98.8944 81.5297 98.8944 64.7531C98.8944 47.9766 85.5464 34.3765 69.0808 34.3765C52.6151 34.3765 39.2671 47.9766 39.2671 64.7531C39.2671 81.5297 52.6151 95.1298 69.0808 95.1298Z" stroke="#0F2453" stroke-width="1.5" stroke-linecap="round" stroke-linejoin="round"/>
<path d="M50.447 64.7533C66.9126 64.7533 80.2606 51.1532 80.2606 34.3767C80.2606 17.6001 66.9126 4 50.447 4C33.9813 4 20.6333 17.6001 20.6333 34.3767C20.6333 51.1532 33.9813 64.7533 50.447 64.7533Z" stroke="#0F2453" stroke-width="1.5" stroke-linecap="round" stroke-linejoin="round"/>
</g>
</svg>
