<svg width="30" height="30" viewBox="0 0 30 30" fill="none" xmlns="http://www.w3.org/2000/svg">
<path d="M11.207 4.82153L12.1284 2.44296C12.2838 2.04024 12.5572 1.69384 12.9128 1.44913C13.2684 1.20442 13.6896 1.07281 14.1213 1.07153H15.8784C16.3101 1.07281 16.7313 1.20442 17.0869 1.44913C17.4425 1.69384 17.7159 2.04024 17.8713 2.44296L18.7927 4.82153L21.9213 6.62153L24.4499 6.23582C24.8709 6.17867 25.2994 6.24798 25.681 6.43494C26.0625 6.6219 26.3799 6.91807 26.5927 7.28582L27.4499 8.78582C27.6695 9.15942 27.7707 9.59085 27.7401 10.0231C27.7095 10.4555 27.5485 10.8683 27.2784 11.2072L25.7142 13.2001V16.8001L27.3213 18.793C27.5914 19.1319 27.7523 19.5448 27.783 19.9771C27.8136 20.4094 27.7124 20.8408 27.4927 21.2144L26.6356 22.7144C26.4227 23.0821 26.1054 23.3783 25.7238 23.5653C25.3423 23.7522 24.9138 23.8215 24.4927 23.7644L21.9642 23.3787L18.8356 25.1787L17.9141 27.5572C17.7588 27.96 17.4854 28.3064 17.1298 28.5511C16.7742 28.7958 16.353 28.9274 15.9213 28.9287H14.1213C13.6896 28.9274 13.2684 28.7958 12.9128 28.5511C12.5572 28.3064 12.2838 27.96 12.1284 27.5572L11.207 25.1787L8.07844 23.3787L5.54986 23.7644C5.12883 23.8215 4.70031 23.7522 4.31875 23.5653C3.9372 23.3783 3.61984 23.0821 3.40701 22.7144L2.54986 21.2144C2.33022 20.8408 2.22903 20.4094 2.25963 19.9771C2.29024 19.5448 2.45121 19.1319 2.72129 18.793L4.28558 16.8001V13.2001L2.67843 11.2072C2.40835 10.8683 2.24738 10.4555 2.21678 10.0231C2.18617 9.59085 2.28737 9.15942 2.50701 8.78582L3.36415 7.28582C3.57699 6.91807 3.89434 6.6219 4.2759 6.43494C4.65745 6.24798 5.08597 6.17867 5.50701 6.23582L8.03558 6.62153L11.207 4.82153ZM10.7141 15.0001C10.7141 15.8477 10.9655 16.6763 11.4364 17.3811C11.9073 18.0859 12.5767 18.6352 13.3598 18.9596C14.1429 19.284 15.0046 19.3688 15.836 19.2035C16.6673 19.0381 17.431 18.6299 18.0303 18.0306C18.6297 17.4312 19.0379 16.6676 19.2032 15.8362C19.3686 15.0049 19.2837 14.1431 18.9593 13.36C18.635 12.5769 18.0857 11.9076 17.3809 11.4367C16.6761 10.9657 15.8475 10.7144 14.9999 10.7144C13.8632 10.7144 12.7731 11.1659 11.9694 11.9696C11.1657 12.7734 10.7141 13.8635 10.7141 15.0001V15.0001Z" stroke="white" stroke-width="1.5" stroke-linecap="round" stroke-linejoin="round"/>
</svg>
