<svg width="167" height="41" viewBox="0 0 167 41" fill="none" xmlns="http://www.w3.org/2000/svg">
<g clip-path="url(#clip0_228_3035)">
<path d="M48.6309 28.7936H60.5829V25.1936H52.8789V11.6336H48.6309V28.7936Z" fill="#0F2453"/>
<path d="M67.6653 26.3936C65.9613 26.3936 65.0733 24.9056 65.0733 22.6736C65.0733 20.4416 65.9613 18.9296 67.6653 18.9296C69.3693 18.9296 70.2813 20.4416 70.2813 22.6736C70.2813 24.9056 69.3693 26.3936 67.6653 26.3936ZM67.6893 29.1776C71.6493 29.1776 74.2413 26.3696 74.2413 22.6736C74.2413 18.9776 71.6493 16.1696 67.6893 16.1696C63.7533 16.1696 61.1133 18.9776 61.1133 22.6736C61.1133 26.3696 63.7533 29.1776 67.6893 29.1776Z" fill="#0F2453"/>
<path d="M81.0941 33.0416C82.9181 33.0416 84.5261 32.6336 85.6061 31.6736C86.5901 30.7856 87.2381 29.4416 87.2381 27.5936V16.5056H83.4941V17.8256H83.4461C82.7261 16.7936 81.6221 16.1456 79.9901 16.1456C76.9421 16.1456 74.8301 18.6896 74.8301 22.2896C74.8301 26.0576 77.3981 28.1216 80.1581 28.1216C81.6461 28.1216 82.5821 27.5216 83.3021 26.7056H83.3981V27.9296C83.3981 29.4176 82.7021 30.2816 81.0461 30.2816C79.7501 30.2816 79.1021 29.7296 78.8861 29.0816H75.0941C75.4781 31.6496 77.7101 33.0416 81.0941 33.0416ZM81.0701 25.2176C79.6061 25.2176 78.6461 24.0176 78.6461 22.1696C78.6461 20.2976 79.6061 19.0976 81.0701 19.0976C82.7021 19.0976 83.5661 20.4896 83.5661 22.1456C83.5661 23.8736 82.7741 25.2176 81.0701 25.2176Z" fill="#0F2453"/>
<path d="M94.9368 26.3936C93.2328 26.3936 92.3448 24.9056 92.3448 22.6736C92.3448 20.4416 93.2328 18.9296 94.9368 18.9296C96.6408 18.9296 97.5528 20.4416 97.5528 22.6736C97.5528 24.9056 96.6408 26.3936 94.9368 26.3936ZM94.9608 29.1776C98.9208 29.1776 101.513 26.3696 101.513 22.6736C101.513 18.9776 98.9208 16.1696 94.9608 16.1696C91.0248 16.1696 88.3848 18.9776 88.3848 22.6736C88.3848 26.3696 91.0248 29.1776 94.9608 29.1776Z" fill="#0F2453"/>
<path d="M102.656 28.7936H106.568V16.5056H102.656V28.7936ZM102.656 14.8016H106.568V11.6336H102.656V14.8016Z" fill="#0F2453"/>
<path d="M108.264 32.8496H112.176V27.5216H112.224C112.992 28.5536 114.12 29.1776 115.704 29.1776C118.92 29.1776 121.056 26.6336 121.056 22.6496C121.056 18.9536 119.064 16.1456 115.8 16.1456C114.12 16.1456 112.92 16.8896 112.08 17.9936H112.008V16.5056H108.264V32.8496ZM114.696 26.1536C113.016 26.1536 112.056 24.7856 112.056 22.7936C112.056 20.8016 112.92 19.2896 114.624 19.2896C116.304 19.2896 117.096 20.6816 117.096 22.7936C117.096 24.8816 116.184 26.1536 114.696 26.1536Z" fill="#0F2453"/>
<path d="M127.425 29.1776C130.641 29.1776 133.017 27.7856 133.017 25.0976C133.017 21.9536 130.473 21.4016 128.313 21.0416C126.753 20.7536 125.361 20.6336 125.361 19.7696C125.361 19.0016 126.105 18.6416 127.065 18.6416C128.145 18.6416 128.889 18.9776 129.033 20.0816H132.633C132.441 17.6576 130.569 16.1456 127.089 16.1456C124.185 16.1456 121.785 17.4896 121.785 20.0816C121.785 22.9616 124.065 23.5376 126.201 23.8976C127.833 24.1856 129.321 24.3056 129.321 25.4096C129.321 26.2016 128.577 26.6336 127.401 26.6336C126.105 26.6336 125.289 26.0336 125.145 24.8096H121.449C121.569 27.5216 123.825 29.1776 127.425 29.1776Z" fill="#0F2453"/>
<path d="M138.332 29.1536C140.036 29.1536 141.116 28.4816 142.004 27.2816H142.076V28.7936H145.82V16.5056H141.908V23.3696C141.908 24.8336 141.092 25.8416 139.748 25.8416C138.5 25.8416 137.9 25.0976 137.9 23.7536V16.5056H134.012V24.5696C134.012 27.3056 135.5 29.1536 138.332 29.1536Z" fill="#0F2453"/>
<path d="M147.521 28.7936H151.433V21.9056C151.433 20.4416 152.153 19.4096 153.377 19.4096C154.553 19.4096 155.105 20.1776 155.105 21.4976V28.7936H159.017V21.9056C159.017 20.4416 159.713 19.4096 160.961 19.4096C162.137 19.4096 162.689 20.1776 162.689 21.4976V28.7936H166.601V20.8016C166.601 18.0416 165.209 16.1456 162.425 16.1456C160.841 16.1456 159.521 16.8176 158.561 18.3056H158.513C157.889 16.9856 156.665 16.1456 155.057 16.1456C153.281 16.1456 152.105 16.9856 151.337 18.2576H151.265V16.5056H147.521V28.7936Z" fill="#0F2453"/>
<path fill-rule="evenodd" clip-rule="evenodd" d="M8.65429 3.89151C7.22363 4.89187 5.92993 6.07462 4.80688 7.40604C9.39618 6.97997 15.2267 7.67568 21.9959 11.0603C29.2245 14.6745 35.0453 14.7967 39.0963 14.0153C38.7287 12.9024 38.2659 11.8328 37.7178 10.816C33.0805 11.3051 27.1355 10.6577 20.2071 7.19362C15.8075 4.99382 11.9293 4.08765 8.65429 3.89151ZM35.0089 6.96029C31.3468 2.86864 26.0249 0.29364 20.1015 0.29364C18.362 0.29364 16.6742 0.515747 15.0652 0.93312C17.2444 1.52773 19.5594 2.39763 21.9959 3.61591C27.0685 6.15217 31.4479 6.9688 35.0089 6.96029ZM39.9624 17.9217C35.0684 18.8881 28.3103 18.6896 20.2071 14.638C12.6315 10.8502 6.60199 10.8979 2.53546 11.8016C2.32556 11.8482 2.1206 11.8972 1.92059 11.9482C1.38818 13.1061 0.963196 14.3237 0.658264 15.5881C0.983948 15.5011 1.32049 15.4184 1.66772 15.3412C6.60113 14.2449 13.5716 14.2925 21.9959 18.5047C29.5716 22.2925 35.6011 22.2448 39.6677 21.3411C39.807 21.3102 39.9443 21.2782 40.0793 21.2452C40.0941 20.9299 40.1015 20.6126 40.1015 20.2936C40.1015 19.4911 40.0543 18.6996 39.9624 17.9217ZM39.4263 25.4659C34.5798 26.3132 28.0185 25.988 20.2071 22.0824C12.6315 18.2946 6.60199 18.3423 2.53546 19.246C1.63281 19.4465 0.820801 19.6908 0.104493 19.9487C0.10254 20.0634 0.101562 20.1784 0.101562 20.2936C0.101562 31.3393 9.05585 40.2936 20.1015 40.2936C29.3586 40.2936 37.1468 34.0045 39.4263 25.4659Z" fill="#3F82FB"/>
</g>
<defs>
<clipPath id="clip0_228_3035">
<rect width="167" height="41" fill="white"/>
</clipPath>
</defs>
</svg>
