<svg xmlns="http://www.w3.org/2000/svg" width="58.017" height="58.017" viewBox="0 0 58.017 58.017"><defs><style>.a,.c{fill:#0061aa;}.a{fill-rule:evenodd;}.b{fill:#fff;}</style></defs><path class="a" d="M17,0,0,16.987V41.03L17,58.017h24.02l17-16.987V16.987L41.017,0Z"/><path class="b" d="M129.5,123.855H123.13V105.07H129.5a9.393,9.393,0,1,1,0,18.785Zm0-14.69h-2.272v10.569H129.5a5.285,5.285,0,1,0,0-10.569Z" transform="translate(-99.74 -85.455)"/><path class="b" d="M169,111.795V97.08H163.46V92.33h15.95v4.75h-5.586v14.715Z" transform="translate(-129.289 -73.029)"/><path class="c" d="M188.9,102.552v4.018h-5.584v14.715h-4.1V106.57h-5.538v-4.018H188.9m.732-.732H172.95v5.473h5.538v14.715h5.552V107.293h5.586V101.82Z" transform="translate(-139.145 -82.884)"/><path class="b" d="M62.972,121.342,62,119.421H54.146l-1,1.921H47.9L58.074,101.43l10.147,19.912ZM59.628,114.8l-1.555-3.056-1.58,3.056Z" transform="translate(-40.236 -82.576)"/><path class="c" d="M55.779,99.19l9.549,18.741H60.9l-.972-1.921h-8.3l-1,1.921H46.2L55.779,99.19M53.6,112.119H57.93l-2.151-4.225L53.6,112.119M55.781,97.58l-.652,1.277L45.554,117.6,45,118.663h6.062l.209-.4.794-1.526h7.4l.769,1.52.209.4h6.062l-.541-1.064L56.431,98.857Zm-.976,13.8.972-1.881.962,1.881Z" transform="translate(-37.943 -79.531)"/></svg>