<svg xmlns="http://www.w3.org/2000/svg" width="57.967" height="59.164" viewBox="0 0 57.967 59.164">
  <g id="Special_Offer" data-name="Special Offer" transform="translate(-108.204 -10.59)">
    <g id="Special_Offer_Icon" data-name="Special Offer Icon" transform="translate(108.204 10.59)">
      <path id="Path_1301" data-name="Path 1301" d="M164.506,120.1c.521,1.342.892,2.448,1.155,3.357l.2.639.163.568c.105.354.214.658.293.924.352,1.058.633,1.439.936,1.493s.606-.219.908-.433.6-.362.9,0A33.467,33.467,0,0,0,168.08,122a34.091,34.091,0,0,0-1.672-4.467,34.908,34.908,0,0,0-5.185-8.126,28.956,28.956,0,0,0-2.449-2.14,29.292,29.292,0,0,0-9.132-4.85,29.058,29.058,0,0,0-6.944-1.334,29.563,29.563,0,0,0-13.711,2.3,29.565,29.565,0,0,0-11.027,8.225,29.368,29.368,0,0,0-3.766,5.761c-.27.507-.487,1.04-.726,1.562s-.428,1.066-.632,1.6a29.606,29.606,0,0,0-.922,16.889c.119.559.29,1.106.444,1.656s.358,1.086.538,1.628c.212.531.408,1.069.641,1.59s.461,1.047.73,1.551a29.339,29.339,0,0,0,3.767,5.711,29.719,29.719,0,0,0,10.928,8.157,29.87,29.87,0,0,0,13.544,2.4,29.352,29.352,0,0,1-4.46-.112,28.637,28.637,0,0,1-4.363-.766,29.6,29.6,0,0,1-19.451-16.02,29.323,29.323,0,0,1-2.814-12.478,30.612,30.612,0,0,1,.3-4.3,29.444,29.444,0,0,1,7.333-15.617,1.2,1.2,0,0,0-.047.364c.027.08.129.055.461-.212a30.561,30.561,0,0,0-7.1,15.669,30.078,30.078,0,0,0,.035,8.521,29.612,29.612,0,0,0,.938,4.169,28.838,28.838,0,0,0,1.545,3.99,28.515,28.515,0,0,0,11.534,12.491,27.674,27.674,0,0,0,3.952,1.867,28.422,28.422,0,0,0,4.224,1.223,27.277,27.277,0,0,0,8.814.34l.079.8a30.039,30.039,0,0,0,12.3-3.882,30.563,30.563,0,0,0,9.679-8.842,18.884,18.884,0,0,0,2.265-4.614,18.3,18.3,0,0,0,.886-4.25,29.883,29.883,0,0,1-11.446,15.1,28.686,28.686,0,0,1-18.387,4.92,28.056,28.056,0,0,1-9.365-2.38,27.728,27.728,0,0,1-7.965-5.4,27.353,27.353,0,0,1-8.222-16.806,26.785,26.785,0,0,0,2.185,7.85c.148.315.282.638.445.948l.484.933c.348.609.691,1.224,1.085,1.81a27.159,27.159,0,0,0,2.564,3.372,29.875,29.875,0,0,0,3.035,2.956,31.023,31.023,0,0,0,3.414,2.459,30.02,30.02,0,0,0,7.5,3.293,27.186,27.186,0,0,0,11.117.643,27.676,27.676,0,0,0,10.15-3.65,28.974,28.974,0,0,0,7.9-6.986,30.074,30.074,0,0,0,4.925-9.277l.184-.545.161-.554c.1-.371.224-.741.306-1.119a22.82,22.82,0,0,0-.281-2.747c-.1-.395-.2-.761-.317-1.087a4.915,4.915,0,0,0-.4-.85c-.28-.474-.579-.746-.883-.745s-.616.271-.923.871c-.079.15-.149.321-.234.512q-.066.147-.132.311c.038-.561.058-1.126.058-1.7a25.021,25.021,0,0,0-1.129-7.455,18.5,18.5,0,0,0-.679-2.708Z" transform="translate(-111.099 -101.005)" fill="#f77e0b"/>
      <g id="Group_2306" data-name="Group 2306" transform="translate(6.831 18.432)">
        <path id="Path_1302" data-name="Path 1302" d="M231.168,412.163a.328.328,0,0,1,.162.027h.014v.014c.018-.009.029-.011.034-.007s.016.007.034.007q.149.014.311.02a.252.252,0,0,1,.23.2.792.792,0,0,1,0,.291,2.931,2.931,0,0,0-.04.291,2.185,2.185,0,0,0-.041.243q-.014.122-.027.244a.285.285,0,0,1-.189.216.309.309,0,0,1-.2.014.132.132,0,0,0-.162.081l-.014-.014a.044.044,0,0,0-.027.041v.041a.2.2,0,0,0,.115.074l.149.041a.38.38,0,0,1,.129.061.159.159,0,0,1,.054.135.081.081,0,0,1-.013.074c-.018.032-.014.052.013.061h-.013V414.3h.013a.128.128,0,0,1-.034.081c-.023.027-.043.05-.061.068a.273.273,0,0,1-.23.068.412.412,0,0,0-.244.041l.027.013-.027.014c0-.009-.013-.014-.041-.014l-.014.014.014.014a.236.236,0,0,1-.149.007.238.238,0,0,0-.149.007.082.082,0,0,0-.081-.013.121.121,0,0,1-.081,0,1.209,1.209,0,0,0-.3.034q-.129.034-.277.088a.219.219,0,0,1-.074.068.417.417,0,0,0-.088.068.44.44,0,0,0-.162.291.578.578,0,0,0,.041.332.369.369,0,0,0,.068.169q.054.075.108.156a.411.411,0,0,1,.095.1.412.412,0,0,0,.095.1.012.012,0,0,0,.014-.013.06.06,0,0,0,.02.054.106.106,0,0,1,.034.041h.013a4.7,4.7,0,0,1,.433.5,2.14,2.14,0,0,1,.311.582q.027.081.061.169c.022.059.043.115.061.169a1.071,1.071,0,0,1,.088.311c.014.108.029.212.047.311a.122.122,0,0,0,0,.081.171.171,0,0,1,0,.095,2.168,2.168,0,0,1-.162,1.015,1.064,1.064,0,0,1-.081.216,2.26,2.26,0,0,0-.095.216,4.49,4.49,0,0,1-.609.852.274.274,0,0,0-.108.074.59.59,0,0,1-.095.088,1.945,1.945,0,0,0-.237.156q-.115.088-.223.156l-.013-.014a2.584,2.584,0,0,1-.636.291,6.417,6.417,0,0,1-.717.183.6.6,0,0,0-.129.013l-.129.027c-.027-.018-.063-.014-.108.014,0-.009-.009-.014-.027-.014-.009.018-.018.02-.027.007s-.023-.016-.041-.007q-.3,0-.6-.007a2.3,2.3,0,0,1-.582-.088.325.325,0,0,1-.2-.23.314.314,0,0,1,.02-.21.3.3,0,0,0,.007-.223,1.373,1.373,0,0,1-.074-.142.173.173,0,0,1,.007-.156.572.572,0,0,1,.068-.23,1.408,1.408,0,0,0,.02-.142.333.333,0,0,1,.047-.142.292.292,0,0,1,.237-.115c.086,0,.178.007.277.007.054-.018.081-.041.081-.068a.167.167,0,0,0-.108-.122,1.229,1.229,0,0,1-.25-.128.218.218,0,0,1-.074-.1q-.027-.068.02-.088a.166.166,0,0,0,.074-.061.378.378,0,0,1,.169-.014c.049.009.106.023.169.041a.055.055,0,0,1,.061.013.115.115,0,0,0,.074.027,2.6,2.6,0,0,0,.359.061,1.564,1.564,0,0,0,.386-.007.556.556,0,0,1,.176-.027.222.222,0,0,0,.162-.068.065.065,0,0,0,.047-.02.037.037,0,0,1,.047-.007v-.014a.046.046,0,0,0,.041-.02.045.045,0,0,1,.041-.02.1.1,0,0,0,.041-.034.1.1,0,0,1,.041-.034.024.024,0,0,1,.027-.027v.013a.349.349,0,0,0,.135-.122c.036-.054.068-.1.095-.149a.687.687,0,0,0,.068-.284.871.871,0,0,0-.054-.3l-.014-.027a.885.885,0,0,0-.21-.332,3.523,3.523,0,0,0-.3-.27q-.162-.129-.325-.25a1.417,1.417,0,0,1-.284-.284q-.108-.162-.25-.345a2.217,2.217,0,0,1-.237-.372c-.009,0-.011-.007-.007-.02a.031.031,0,0,0-.007-.034,2.517,2.517,0,0,1-.244-.663,2.361,2.361,0,0,1-.054-.7,1.4,1.4,0,0,1,.047-.365,2.686,2.686,0,0,1,.115-.338.555.555,0,0,1,.081-.244q.068-.108.122-.216a2.031,2.031,0,0,1,.169-.264l.183-.237a.2.2,0,0,0,.1-.088.273.273,0,0,1,.1-.1,3.481,3.481,0,0,1,.413-.352,2.8,2.8,0,0,1,.453-.271l.014-.027h.013a4.51,4.51,0,0,1,.778-.271,4.639,4.639,0,0,1,.818-.135.741.741,0,0,0,.223-.007.536.536,0,0,1,.223.007h.2A.89.89,0,0,1,231.168,412.163Zm.5,2.178.014-.027v.014Z" transform="translate(-226.33 -412.109)" fill="#fff"/>
        <path id="Path_1303" data-name="Path 1303" d="M332.285,411.952q.433,0,.893.027h.23l.027.014q.243.027.514.041a.729.729,0,0,1,.474.2.022.022,0,0,1,.027-.007c.009,0,.009.011,0,.02h.014l.013.014c.018-.009.036,0,.054.02a.144.144,0,0,0,.081.047c.153.081.284.154.392.216a1.869,1.869,0,0,0,.142.128l.156.129a.168.168,0,0,0,.047.054q.034.027.061.054.108.19.223.352a1.158,1.158,0,0,1,.169.352.122.122,0,0,1,.034.054.253.253,0,0,0,.02.054,2.1,2.1,0,0,1,.115.649,6.472,6.472,0,0,1-.02.663.11.11,0,0,0-.027.081.4.4,0,0,1-.014.095,3.055,3.055,0,0,1-.1.365q-.061.176-.128.325a1.553,1.553,0,0,0-.135.237,2.145,2.145,0,0,1-.149.264,5.616,5.616,0,0,1-.69.812,4.06,4.06,0,0,1-.852.622c-.009.018-.02.025-.034.02a.031.031,0,0,0-.034.007.822.822,0,0,1-.244.135c0,.018,0,.025-.014.02s-.023,0-.041.02a1.394,1.394,0,0,0-.176.074,1.078,1.078,0,0,1-.189.074.519.519,0,0,1-.108.041.3.3,0,0,0-.108.054c-.018-.018-.029-.016-.034.007s-.016.025-.034.007c-.045.027-.072.036-.081.027-.018.027-.034.036-.047.027s-.025,0-.034.041v-.027l-.21.061a.79.79,0,0,1-.223.034c-.027-.018-.052-.036-.074-.054a.143.143,0,0,1-.047-.081.086.086,0,0,1,.007-.074.37.37,0,0,0,.034-.074l-.027.014a.921.921,0,0,1,.176-.1q.081-.034.189-.088a.072.072,0,0,0,.054-.081.209.209,0,0,0-.081-.068.221.221,0,0,0-.054.007.215.215,0,0,1-.054.007.479.479,0,0,0-.088.013.526.526,0,0,1-.115.014.419.419,0,0,0-.128-.007c-.041,0-.066-.02-.074-.074a.25.25,0,0,1-.047-.068.267.267,0,0,0-.047-.068.322.322,0,0,1-.054-.034.049.049,0,0,0-.054-.007.391.391,0,0,0-.074.068.247.247,0,0,0-.034.095q-.054.3-.122.575a3.975,3.975,0,0,0-.095.548.191.191,0,0,0-.047.156.286.286,0,0,1-.034.169q-.027.2-.068.406t-.068.392q-.027.162-.061.311t-.061.325a1.861,1.861,0,0,0-.068.5.157.157,0,0,1-.047.115.392.392,0,0,1-.1.074,1.046,1.046,0,0,1-.264.02c-.086,0-.165-.011-.237-.02-.018-.018-.041-.043-.068-.074a.171.171,0,0,1-.041-.115,1.531,1.531,0,0,1-.013-.216.187.187,0,0,0-.095-.176.2.2,0,0,0-.142.162q-.02.122-.047.23a.177.177,0,0,1-.122.189l-.041.027v-.013a.128.128,0,0,1-.115,0,.4.4,0,0,0-.1-.041v-.014q-.081-.094-.156-.027a.229.229,0,0,1-.156.068l-.122-.027.013.013v-.013a.35.35,0,0,1-.088-.338.92.92,0,0,0,.02-.365q.054-.352.074-.663t.047-.663q.013-.135.027-.264t.027-.264a3.305,3.305,0,0,0,.047-.487,1.579,1.579,0,0,1,.088-.487.832.832,0,0,0,.115-.385,2.759,2.759,0,0,1,.047-.413q.027-.189.054-.385t.04-.413a.165.165,0,0,1-.027-.095.241.241,0,0,0-.027-.108.391.391,0,0,1,.007-.217.728.728,0,0,0,.034-.216c.027-.126.049-.259.068-.4s.041-.273.068-.4c.027-.027.041-.045.041-.054.009.009.014.009.014,0a.012.012,0,0,1,.013-.014l-.013-.013c0-.009,0-.011.013-.007s.014,0,.014-.02v-.027c.018.018.025.02.02.007s0-.016.007-.007,0,.023.007.014a.022.022,0,0,1,.02-.014l.013-.014-.013-.014.027-.027.027.014.013-.041.014.014v-.041c0,.009.009.014.027.014q-.054,0-.027.04c.036-.018.054-.036.054-.054.018.018.029.018.034,0s.016-.018.034,0c.009-.027.018-.029.027-.007s.022.016.04-.02a.3.3,0,0,0,.135-.034c.045-.022.09-.047.135-.074h.013a.073.073,0,0,0,0-.061c-.009-.022-.018-.043-.027-.061a.474.474,0,0,0-.264-.054,1.419,1.419,0,0,1-.277,0q-.108-.013-.23-.02a.2.2,0,0,1-.176-.142.861.861,0,0,1,0-.372,2.591,2.591,0,0,0,.054-.359.22.22,0,0,0,.034-.095.214.214,0,0,1,.034-.095h-.014a.124.124,0,0,1,.061-.068.412.412,0,0,0,.088-.068.275.275,0,0,0,.061-.088.149.149,0,0,0-.007-.115.252.252,0,0,0-.068-.1.267.267,0,0,1-.068-.088.632.632,0,0,1,.007-.277q.034-.128.061-.264a.2.2,0,0,1,.047-.054.318.318,0,0,0,.047-.041,2.421,2.421,0,0,1,.487-.034,3.375,3.375,0,0,0,.487-.02q.162.014.3.02a1.384,1.384,0,0,0,.3-.02Q331.866,411.952,332.285,411.952Zm-.291,2.368a.244.244,0,0,0-.088-.013.2.2,0,0,0-.088.135,1.024,1.024,0,0,1-.047.162.082.082,0,0,0-.02.034q-.007.02.02.02a.11.11,0,0,0-.027.081.259.259,0,0,1-.013.081q.027.109.108.081c.045-.009.068-.031.068-.068a.132.132,0,0,1,.027-.095v-.014a.122.122,0,0,0,.034-.054.258.258,0,0,1,.02-.054h0a.129.129,0,0,0,.041-.095c.018,0,.022-.007.013-.02s0-.025.014-.034a.221.221,0,0,1,.007-.054.126.126,0,0,0-.007-.068Zm.616-.061q-.041.034-.081.075a1.119,1.119,0,0,0-.041.156.733.733,0,0,1-.041.142v.027q-.095.284-.169.609t-.169.636a.067.067,0,0,0,0,.081.119.119,0,0,0-.034.068.4.4,0,0,0-.007.068.528.528,0,0,1-.047.149.131.131,0,0,0,.034.149q.027.068.081.061a.094.094,0,0,1,.081.02l.013-.013.014.013v-.013l.027.013a1,1,0,0,0,.128-.034c.041-.013.083-.029.129-.047a1.894,1.894,0,0,0,.676-.433,1.711,1.711,0,0,0,.4-.616.877.877,0,0,0-.02-.683l-.047-.068a.228.228,0,0,1-.034-.068c-.027.018-.038.013-.034-.014s0-.031-.02-.013a.189.189,0,0,0-.074-.081.339.339,0,0,1-.074-.054.087.087,0,0,0-.081-.054.092.092,0,0,1-.068-.027l-.054-.027a.044.044,0,0,0-.054.014l-.013-.027a.44.44,0,0,0-.162-.027h-.149A.124.124,0,0,0,332.61,414.259Z" transform="translate(-322.982 -411.925)" fill="#fff"/>
        <path id="Path_1304" data-name="Path 1304" d="M458.664,411.939l.013-.014a.481.481,0,0,1,.176.061.233.233,0,0,1,.108.142.107.107,0,0,1,.007.061.1.1,0,0,0,.007.061l-.014-.013-.014.027c-.009.081-.018.165-.027.251s-.018.169-.027.251l.013.014a.346.346,0,0,1-.047.176l-.088.149a.64.64,0,0,1-.406.285c0,.027-.009.043-.027.047s-.023.021-.013.048a.114.114,0,0,0,.068.095.551.551,0,0,1,.162.095c.009,0,.02.014.034.041a.255.255,0,0,0,.047.068.614.614,0,0,1-.007.271q-.034.136-.074.258a.133.133,0,0,0-.047.041.071.071,0,0,1-.061.027c-.054.009-.106.016-.155.02a.375.375,0,0,1-.156-.02q-.5-.014-.954-.021t-.913-.034a.644.644,0,0,1-.23.014.212.212,0,0,0-.2.095.129.129,0,0,1-.041.075c-.018.014-.022.039-.013.074h.013a.109.109,0,0,0-.034.095.294.294,0,0,1-.007.108q-.041.027-.02.041a.1.1,0,0,1,.034.041c.009.018.036.027.081.027a.291.291,0,0,0,.088-.115.929.929,0,0,1,.074-.135.292.292,0,0,1,.1-.095.2.2,0,0,1,.156-.007l.027.027v-.027a.291.291,0,0,1,.162.2q-.014.068-.027.129a.5.5,0,0,1-.041.115.541.541,0,0,1-.047.136.3.3,0,0,0-.034.135,2.448,2.448,0,0,0-.074.237q-.034.129-.074.251v.108a.227.227,0,0,0,.081.2h.23a2.084,2.084,0,0,0,.23-.014.4.4,0,0,0,.149.027.843.843,0,0,0,.162-.013q.135.014.284.013h.284a.141.141,0,0,1,.074.02.32.32,0,0,1,.061.047c.009.018.02.043.034.075a.062.062,0,0,1-.007.074c.009.009.007.023-.007.041a.09.09,0,0,0-.02.054c.009.027,0,.045-.02.054s-.034.023-.034.041a.2.2,0,0,0-.095.19.053.053,0,0,0,.041.054v.014c.018-.018.027-.013.027.014a.617.617,0,0,1,.013.339.688.688,0,0,1-.189.433.337.337,0,0,1-.21.047.338.338,0,0,0-.21.047.456.456,0,0,0-.237.129.285.285,0,0,1-.264.074,3.742,3.742,0,0,0-.386-.007q-.2.007-.386.007a.207.207,0,0,0-.135.02.46.46,0,0,0-.122.088,3.613,3.613,0,0,0-.128.454q-.048.224-.115.454a1.784,1.784,0,0,1-.061.2.237.237,0,0,0,.02.2.3.3,0,0,0,.1.041.525.525,0,0,0,.115.014.071.071,0,0,0,.061,0,.109.109,0,0,1,.061-.014v.014a1.344,1.344,0,0,0,.359.007,1.576,1.576,0,0,1,.386.007.3.3,0,0,1,.108-.007.382.382,0,0,0,.122-.007q.23.013.446.007a2.821,2.821,0,0,1,.433.02v.027h.013v.013h.014a.221.221,0,0,1,.068.075.338.338,0,0,0,.054.074q-.04.19-.081.359t-.081.359a.514.514,0,0,1-.095.135.186.186,0,0,0-.041.163c.018.045.036.093.054.142a.457.457,0,0,1,.027.156h-.027a.671.671,0,0,0-.061.23.344.344,0,0,1-.115.217.166.166,0,0,0-.061.075c-.013.032-.043.043-.088.034a.262.262,0,0,1-.128.02.338.338,0,0,0-.142.02l-.433-.027a3.482,3.482,0,0,0-.433,0,.931.931,0,0,0-.25-.02c-.086,0-.174.007-.264.007a1.18,1.18,0,0,1-.257-.027.4.4,0,0,1-.217-.135c-.054-.018-.09-.018-.108,0a.256.256,0,0,1-.189.108l-.23.027-.013-.014a4.583,4.583,0,0,1-.609.014q-.3-.014-.622,0a.4.4,0,0,1-.284-.163h-.013a.217.217,0,0,0-.014-.122.722.722,0,0,1,.02-.257.68.68,0,0,0,.02-.244,2.2,2.2,0,0,0,.081-.515,3.09,3.09,0,0,1,.068-.528q.041-.244.068-.481t.068-.481q.04-.217.081-.44t.068-.44a.4.4,0,0,0,.027-.149.434.434,0,0,1,.027-.163q.081-.46.176-.948t.2-.935a.233.233,0,0,1,.142-.183.385.385,0,0,0,.183-.156.669.669,0,0,0,.081-.264,1.184,1.184,0,0,1,.054-.264c.009-.036.02-.074.034-.115a.1.1,0,0,0-.047-.115.383.383,0,0,0-.237-.034.458.458,0,0,1-.237-.02.012.012,0,0,0-.013-.013V414.3c-.009.027-.018.032-.027.014a.027.027,0,0,0-.041-.014c.009-.018,0-.027-.027-.027v.014c-.018-.009-.023-.018-.014-.027s.009-.023,0-.041h-.013a.174.174,0,0,1,0-.135.235.235,0,0,0,.013-.135l.027-.109c.009-.036.018-.077.027-.122h.014a.024.024,0,0,1,.027-.027c-.018-.009-.023-.014-.013-.014a.012.012,0,0,0,.013-.014.135.135,0,0,1,.115-.081.134.134,0,0,0,.115-.081.082.082,0,0,1,.014-.048.045.045,0,0,0,0-.047c-.045-.027-.1-.061-.162-.1a.141.141,0,0,1-.081-.142,1.862,1.862,0,0,1,.047-.413q.047-.21.088-.413A.549.549,0,0,1,454,412.2a.952.952,0,0,1,.25-.047,2.5,2.5,0,0,1,.264,0,.944.944,0,0,0,.257-.02.623.623,0,0,0,.291-.108.343.343,0,0,1,.291-.054.354.354,0,0,0,.088-.007.345.345,0,0,1,.088-.007v.013h.014v-.013c0,.018,0,.023.007.013s.011-.009.02,0a.093.093,0,0,1,.061-.007.143.143,0,0,0,.074-.007h.365q.176,0,.379-.013.514,0,1.082-.007T458.664,411.939Z" transform="translate(-439.363 -411.925)" fill="#fff"/>
        <path id="Path_1305" data-name="Path 1305" d="M569.471,412.235q.122.014.257.02a.231.231,0,0,1,.2.156l.014.054c-.018.09-.034.176-.047.257s-.029.162-.047.244a.686.686,0,0,1-.074.135.562.562,0,0,0-.074.149.13.13,0,0,1-.041.095.092.092,0,0,0-.013.108c-.009.045-.018.086-.027.122l-.027.108a.11.11,0,0,0-.027.081.3.3,0,0,1,.027.135.394.394,0,0,0,.027.149.646.646,0,0,0-.041.23.207.207,0,0,1-.095.176.25.25,0,0,1-.223.095.515.515,0,0,0-.237.027,1.14,1.14,0,0,0-.365.088,2.933,2.933,0,0,0-.338.169,4.187,4.187,0,0,0-.69.521,5.012,5.012,0,0,0-.568.629.484.484,0,0,1-.169.149.447.447,0,0,0-.169.162l-.027.014a3.422,3.422,0,0,0-.332.48,2.074,2.074,0,0,0-.209.521.255.255,0,0,0-.047.135.338.338,0,0,1-.047.149,3.318,3.318,0,0,0-.047.487,1.34,1.34,0,0,0,.075.487.251.251,0,0,0,.034.135.382.382,0,0,1,.047.108,2.133,2.133,0,0,0,.386.46,1.164,1.164,0,0,0,.548.284l.271.054a.676.676,0,0,0,.271,0,.96.96,0,0,0,.3-.02.551.551,0,0,1,.3.02.376.376,0,0,1,.081.19.083.083,0,0,1-.02.061.105.105,0,0,0-.02.074l.027-.027a.475.475,0,0,0-.034.128.156.156,0,0,0,.034.115.1.1,0,0,1,.014.081h.013a.012.012,0,0,0,.014-.014c-.009.018-.011.032-.007.041a.049.049,0,0,1-.007.041.056.056,0,0,1,.014.041.04.04,0,0,0-.027-.013q-.014.027,0,.034c.009,0,.009.016,0,.034a.04.04,0,0,0-.014-.027.31.31,0,0,0-.041.162.132.132,0,0,1-.095.122.229.229,0,0,1-.183.074q-.1-.007-.129.115v-.027l-.027.027c.018.018.022.034.014.047s0,.029.027.047a.177.177,0,0,1,.054.047.083.083,0,0,0,.068.034c-.018.018-.014.05.013.095a.1.1,0,0,1,.02.1.192.192,0,0,0-.007.115.417.417,0,0,1-.162.189.426.426,0,0,1-.23.068.538.538,0,0,1-.189.02.645.645,0,0,0-.2.02,4.019,4.019,0,0,1-1.536-.244,2.848,2.848,0,0,1-1.251-.906,1.187,1.187,0,0,0-.21-.331.976.976,0,0,1-.2-.331q-.041-.149-.095-.3a1.183,1.183,0,0,1-.068-.3,4.4,4.4,0,0,1-.135-1.1.723.723,0,0,1,.013-.162,2.264,2.264,0,0,1,.034-.413q.034-.183.074-.4a3.737,3.737,0,0,1,.1-.413q.061-.2.129-.386a4.51,4.51,0,0,1,.582-1.2c-.009-.009-.009-.02,0-.034a.222.222,0,0,1,.027-.034l.365-.568a5.4,5.4,0,0,1,.426-.507q.237-.25.426-.453a.781.781,0,0,0,.149-.135,1.494,1.494,0,0,1,.243-.2,2.1,2.1,0,0,0,.257-.2h-.013a.6.6,0,0,0,.108-.054.575.575,0,0,0,.108-.081h.013a.181.181,0,0,1,.061-.041.177.177,0,0,0,.061-.041h.014a4.842,4.842,0,0,1,.94-.426,4.3,4.3,0,0,1,1.021-.21.034.034,0,0,1,.054,0,.556.556,0,0,1,.257.007Q569.349,412.208,569.471,412.235Z" transform="translate(-543.758 -412.14)" fill="#fff"/>
        <path id="Path_1306" data-name="Path 1306" d="M678.486,412.1a.186.186,0,0,1,.176.176.131.131,0,0,1,.02.122.769.769,0,0,1-.047.122q-.109.379-.2.744t-.183.744a.264.264,0,0,0,0,.169,1.072,1.072,0,0,1,.054.169l.013.135a.334.334,0,0,1-.013.088.1.1,0,0,0,0,.074l-.014-.041q-.054.23-.128.467a3.664,3.664,0,0,0-.115.467l-.013.013q-.379,1.394-.663,2.814t-.514,2.882a.353.353,0,0,1-.095.128.29.29,0,0,1-.149.075.378.378,0,0,1-.21.02.652.652,0,0,0-.209-.007.823.823,0,0,1-.514.081.4.4,0,0,1-.176-.135.462.462,0,0,1-.02-.237A.137.137,0,0,0,675.4,421a.206.206,0,0,0-.1.081.878.878,0,0,0-.061.115c-.018.041-.038.081-.061.122a.272.272,0,0,1-.1.1.58.58,0,0,1-.108.054.142.142,0,0,1-.122,0,.08.08,0,0,1-.068-.041.461.461,0,0,0-.054-.068.7.7,0,0,1,.014-.3,1.2,1.2,0,0,0,.041-.3q.041-.433.108-.879t.095-.879c-.009-.027-.019-.052-.027-.074a.077.077,0,0,1,.014-.074,2.2,2.2,0,0,1,.027-.48c.027-.167.049-.331.068-.494q.04-.379.1-.791t.115-.764q.068-.325.115-.643t.115-.656q.04-.311.1-.629t.129-.629l-.014-.027h.014c.009,0,.014-.009.014-.027a1.369,1.369,0,0,0,.041-.2.575.575,0,0,1,.054-.182,3.988,3.988,0,0,1,.081-.474q.054-.23.108-.473a.273.273,0,0,1,.122-.169.715.715,0,0,1,.189-.088c.009.018.023.018.041,0a.4.4,0,0,0,.23.014.235.235,0,0,1,.217.068.386.386,0,0,0,.095.108l.013-.013c0,.018,0,.027.014.027s.022.009.041.027c.018-.018.034-.025.047-.02s.025-.007.034-.034v.013a.066.066,0,0,0,.081-.034.131.131,0,0,1,.095-.061.211.211,0,0,1,.149.041.12.12,0,0,1,.033.061.118.118,0,0,0,.034.061.2.2,0,0,0-.014.189.07.07,0,0,0,.108.027.225.225,0,0,0,.081-.149.764.764,0,0,0,.095-.216.193.193,0,0,1,.176-.135.781.781,0,0,1,.25-.013,2.362,2.362,0,0,0,.25.013Z" transform="translate(-648.133 -412.069)" fill="#fff"/>
        <path id="Path_1307" data-name="Path 1307" d="M755.683,413.881q.041.73.041,1.461a4.973,4.973,0,0,1,.013.629,4.667,4.667,0,0,0,.014.616l-.014.041a3.462,3.462,0,0,1,.007.372q-.007.183-.007.385a.072.072,0,0,0,0,.061.073.073,0,0,1,0,.061q-.014.852-.041,1.63t-.068,1.63a1.336,1.336,0,0,0-.013.189,1.282,1.282,0,0,1-.013.176c.018.018.016.034-.007.047s-.02.029.007.047a.065.065,0,0,1-.014.088.081.081,0,0,0-.027.088l-.034.068a.106.106,0,0,1-.074.054.193.193,0,0,1-.176-.027.2.2,0,0,1-.095-.162.082.082,0,0,0-.122,0,.887.887,0,0,1-.1.135.2.2,0,0,1-.156.068.012.012,0,0,0-.013-.013h-.054a1.786,1.786,0,0,1-.338-.034.4.4,0,0,0-.324.074.031.031,0,0,1-.034.007.11.11,0,0,0-.034-.007l-.013.027c-.009,0-.009,0,0-.007s.009-.011,0-.02c-.018.018-.034.023-.048.014s-.029,0-.047.014a.364.364,0,0,0-.135-.027.154.154,0,0,1-.122-.068.4.4,0,0,0-.041-.1c-.018-.031-.036-.061-.054-.088q-.027-.311-.027-.6t-.013-.528c-.009-.063-.041-.1-.095-.1a.255.255,0,0,1-.135-.047,2.542,2.542,0,0,1-.372,0,.82.82,0,0,0-.358.054.236.236,0,0,1-.122.068.484.484,0,0,0-.122.04,4.751,4.751,0,0,1-.582.02,4.811,4.811,0,0,0-.582.02.3.3,0,0,1-.115.075.145.145,0,0,0-.088.1q-.122.23-.243.467t-.257.467a.236.236,0,0,1-.095.095.271.271,0,0,0-.095.081c-.018-.009-.027-.018-.027-.027s-.009,0-.027.013l.027.027h-.04a.012.012,0,0,1,.013-.013c.009,0,0,0-.013-.014a.169.169,0,0,1-.115.014.592.592,0,0,0-.129-.014.692.692,0,0,1-.115-.041.107.107,0,0,0-.115.013.113.113,0,0,1-.108.047q-.068-.007-.122-.007a.238.238,0,0,1-.156-.088.136.136,0,0,0-.169-.034.909.909,0,0,1-.23.115.275.275,0,0,1-.257-.034c-.027-.027-.054-.056-.081-.088a.128.128,0,0,1-.027-.115.709.709,0,0,1,.047-.176c.023-.054.043-.108.061-.162h.014a5.417,5.417,0,0,1,.257-.548,4.775,4.775,0,0,0,.257-.562v0q.352-.649.643-1.285t.643-1.272q.406-.771.839-1.529t.879-1.5q.284-.5.6-.994t.622-.967a.211.211,0,0,1,.054-.041.212.212,0,0,0,.054-.041h.149v.013a.073.073,0,0,1,.081.02.238.238,0,0,0,.081.061.167.167,0,0,0,.176-.047.59.59,0,0,1,.176-.129.447.447,0,0,0,.2.007.454.454,0,0,1,.2.007c.009-.009.016-.007.02.007s.016.016.034.007a.292.292,0,0,1,.135.074.1.1,0,0,0,.149-.007l.094-.081a.289.289,0,0,1,.163-.007.283.283,0,0,0,.162-.007.464.464,0,0,1,.162.1.291.291,0,0,1,.095.183Q755.642,413.151,755.683,413.881Zm-2.375,2.719c0-.036-.025-.049-.061-.041a.649.649,0,0,0-.094.081q-.19.312-.379.636t-.379.636q-.054.095-.122.2a.507.507,0,0,0-.081.237.062.062,0,0,0,.047.034.26.26,0,0,1,.061.02q.2,0,.467.007t.467.007a.22.22,0,0,0,.162-.108.35.35,0,0,0,.034-.183,1.557,1.557,0,0,0-.027-.2.441.441,0,0,1-.007-.169.647.647,0,0,0-.007-.088.564.564,0,0,1-.007-.061l-.013-.013.013-.014v-.013c0-.018,0-.022-.013-.014l.013-.054a.273.273,0,0,1-.013-.142.231.231,0,0,0-.014-.129.105.105,0,0,1-.014-.068l.014-.027h-.014a.312.312,0,0,0,0-.128c-.009-.041-.018-.083-.027-.129.018-.009.018-.022,0-.041.018-.027.02-.049.007-.068a.1.1,0,0,1-.007-.081A.722.722,0,0,0,753.308,416.6Zm.115,2.259a.131.131,0,0,0-.067-.027.233.233,0,0,0-.156,0,.848.848,0,0,1-.156.041c-.009-.009-.018-.007-.027.007s-.018.02-.027.02a.022.022,0,0,1-.014.02c-.009,0,0,.016.014.034H753l.014.027a.237.237,0,0,0,.176.068,1.424,1.424,0,0,0,.2-.014q.068-.013.068-.108A.079.079,0,0,0,753.423,418.86Z" transform="translate(-717.591 -412.109)" fill="#fff"/>
        <path id="Path_1308" data-name="Path 1308" d="M889.658,411.979c.018-.018.031-.011.041.02a.054.054,0,0,0,.054.047.143.143,0,0,1,.034.142.311.311,0,0,0-.007.142l-.014-.027c-.009.036-.018.074-.027.115a.125.125,0,0,0,.013.1c-.018.027-.018.047,0,.061a.521.521,0,0,1,.054.047.232.232,0,0,0,.142-.108,1.221,1.221,0,0,0,.074-.149,1.78,1.78,0,0,1,.122-.23.236.236,0,0,1,.216-.108.359.359,0,0,0,.182.007.292.292,0,0,1,.2.034l-.013-.013a.117.117,0,0,1,.095.122l-.014-.014a.463.463,0,0,1,0,.223c-.018.077-.036.151-.054.223a.3.3,0,0,1,.02.054.3.3,0,0,1,.006.068c.009,0,.014-.013.014-.041a.986.986,0,0,0,.014.284.611.611,0,0,1,0,.257,2.144,2.144,0,0,0-.108.338c-.027.117-.059.239-.095.365q-.312,1.231-.582,2.5t-.46,2.482l-.034.169a.175.175,0,0,0,.047.169.09.09,0,0,1,.041.041q.013.027.041,0a.163.163,0,0,0,.135.02.244.244,0,0,1,.149.007c.018-.018.031-.022.04-.014a.054.054,0,0,0,.041.014.124.124,0,0,1,.095-.014.251.251,0,0,0,.081.014c.072,0,.146,0,.223-.007a1.439,1.439,0,0,1,.237.007.037.037,0,0,1,.054-.007.07.07,0,0,0,.068.007,4.951,4.951,0,0,0,.629.014,3.819,3.819,0,0,1,.629.027.178.178,0,0,1,.095.237.83.83,0,0,0-.054.264.318.318,0,0,1-.1.244.28.28,0,0,0-.088.243c.018.009.025.02.021.034a.061.061,0,0,0,.006.047.193.193,0,0,1,.095.183,1.887,1.887,0,0,1-.04.21.7.7,0,0,0-.041.162c-.009.063-.02.124-.034.183a.328.328,0,0,1-.074.149.249.249,0,0,1-.162.074.2.2,0,0,0-.135-.007.2.2,0,0,1-.135-.007q-.433-.027-.866-.034t-.839.007a.5.5,0,0,1-.244-.034c-.081-.031-.158-.065-.23-.1a.474.474,0,0,0-.189.095.246.246,0,0,1-.216.041c-.118,0-.248,0-.392-.007a2.37,2.37,0,0,0-.406.02,1.149,1.149,0,0,1-.21-.074.188.188,0,0,1-.115-.156.248.248,0,0,1-.014-.081c0-.027-.018-.045-.054-.054a.087.087,0,0,0-.094.041q-.041.054-.068.095a.5.5,0,0,1-.061.095.5.5,0,0,0-.061.095.055.055,0,0,0-.054.027.043.043,0,0,1-.04.027.158.158,0,0,1-.1-.027l-.088-.067a.622.622,0,0,1-.027-.318c.018-.113.036-.219.054-.318q.081-.609.176-1.245t.2-1.245a.615.615,0,0,1-.014-.122.36.36,0,0,0-.027-.135l.014-.027a1.089,1.089,0,0,1-.021-.365c.014-.126.029-.248.048-.365q.068-.433.135-.852t.135-.852q.162-.974.365-1.948a.927.927,0,0,1,.02-.189q.021-.095.048-.19.04-.23.081-.446a2.606,2.606,0,0,1,.122-.433.6.6,0,0,1,.3-.162,1.314,1.314,0,0,0,.3-.007.556.556,0,0,0,.271-.115.381.381,0,0,1,.155-.02.6.6,0,0,0,.156-.007.092.092,0,0,0,.068.027A.055.055,0,0,1,889.658,411.979Z" transform="translate(-847.844 -411.925)" fill="#fff"/>
      </g>
      <g id="Group_2307" data-name="Group 2307" transform="translate(9.65 30.969)">
        <path id="Path_1309" data-name="Path 1309" d="M279.135,623.72a2.508,2.508,0,0,1,1.2.392,2.854,2.854,0,0,1,.818.792,3.875,3.875,0,0,1,.507,1.035,4.028,4.028,0,0,1,.162,1.908,6.257,6.257,0,0,1-.568,1.826,5.219,5.219,0,0,1-.521.934q-.3.433-.643.866-.217.2-.413.42a2.605,2.605,0,0,1-.426.379l-.189.135a1.292,1.292,0,0,0-.162.135l-.013-.014c0,.018,0,.025-.013.02a.022.022,0,0,0-.027.007,1.078,1.078,0,0,1-.264.149,1.075,1.075,0,0,0-.264.149l-.014-.014v.027l-.027.027a.012.012,0,0,1,.013-.014c.009,0,.009,0,0-.013l-.027.013-.013-.013a3.891,3.891,0,0,1-.785.25,3.358,3.358,0,0,1-.852.068,3.1,3.1,0,0,1-.852-.162A2.49,2.49,0,0,1,275,632.6a2.277,2.277,0,0,1-.6-.717,3.97,3.97,0,0,1-.359-.893,4.4,4.4,0,0,1-.129-1.772,6.424,6.424,0,0,1,.453-1.718q.122-.3.257-.568t.3-.541a.985.985,0,0,0,.041-.284.351.351,0,0,1,.108-.257,4.9,4.9,0,0,1,.9-.907,4.129,4.129,0,0,1,1.089-.609.215.215,0,0,1,.189.034,1.411,1.411,0,0,1,.149.129.154.154,0,0,1,.068.013.086.086,0,0,0,.068,0q.108-.067.068-.162a.311.311,0,0,1-.013-.162.7.7,0,0,1,.04-.163.485.485,0,0,1,.23-.149q.135-.04.271-.068a3.538,3.538,0,0,1,1-.068Zm-.074,2.807a1.374,1.374,0,0,0-.4-.359q-.095-.041-.183-.088a.265.265,0,0,0-.2-.02.2.2,0,0,0-.014.122c.009.036.018.077.027.122,0,.009,0,.011.014.007s.009,0,0,.02v.068a.184.184,0,0,1-.054.135.361.361,0,0,1-.122.081,1.882,1.882,0,0,0-.575.244,3.46,3.46,0,0,0-.494.392.334.334,0,0,0-.108.1.409.409,0,0,1-.095.1q-.095.135-.189.257a1.338,1.338,0,0,0-.162.271.13.13,0,0,0-.054.067.341.341,0,0,1-.041.081c.009.009.009.014,0,.014s0,0,.014.013l-.027.013a.17.17,0,0,0-.041.068.221.221,0,0,0-.014.068,1.451,1.451,0,0,0-.156.392q-.048.2-.1.419l-.027.108a.168.168,0,0,0,0,.095.361.361,0,0,0-.027.135.3.3,0,0,1-.014.095l.014.014a.842.842,0,0,0-.014.271,1.7,1.7,0,0,0,.041.271h.014a1.216,1.216,0,0,0,.129.372.8.8,0,0,0,.264.3.82.82,0,0,0,.528.21,1.169,1.169,0,0,0,.582-.1,1.343,1.343,0,0,0,.649-.48,5.694,5.694,0,0,0,.446-.7,8.613,8.613,0,0,0,.514-1.312,2.975,2.975,0,0,0,.081-1.38A1.069,1.069,0,0,0,279.061,626.527Zm-1.008-1.752-.135.054a.248.248,0,0,0-.108.081.09.09,0,0,0,.013.122.077.077,0,0,0,.074.013c.022-.009.043-.018.061-.027a.3.3,0,0,1,.129-.054c.049-.009.074-.045.074-.108S278.125,624.775,278.053,624.775Z" transform="translate(-273.87 -623.701)" fill="#fff"/>
        <path id="Path_1310" data-name="Path 1310" d="M421.2,623.65a.809.809,0,0,0,.21,0,2.677,2.677,0,0,1,.338.074,2.723,2.723,0,0,0,.325.074c.081,0,.158,0,.23-.007a.944.944,0,0,1,.244.02.159.159,0,0,1,.135.007c.045.023.09.043.135.061a.116.116,0,0,1,.061.1,1.364,1.364,0,0,0,.02.142,3.276,3.276,0,0,0-.1.467,4.37,4.37,0,0,1-.1.494.946.946,0,0,1-.074.095.1.1,0,0,1-.1.041c-.009.018-.018.025-.027.02a.022.022,0,0,0-.027.007.26.26,0,0,0-.047.068.1.1,0,0,0,.007.095.4.4,0,0,1,.061.237.5.5,0,0,1-.061.223.319.319,0,0,1-.3.129,1.207,1.207,0,0,0-.338.007.223.223,0,0,0-.142-.007.182.182,0,0,1-.128-.007q-.352.013-.67,0a4.845,4.845,0,0,0-.629.013.227.227,0,0,0-.149.095.2.2,0,0,1-.041.122.146.146,0,0,0-.027.122v.014h.013c-.018-.009-.027,0-.027.027a.078.078,0,0,1-.027.054q-.081.257-.149.48t-.135.48a.178.178,0,0,1,.007.129c-.013.05.011.079.074.088l.014.027a.851.851,0,0,0,.183.007.759.759,0,0,1,.169.007.112.112,0,0,1,.068-.007.408.408,0,0,0,.068.007v-.013a.05.05,0,0,0,.047.007c.022,0,.034,0,.034.007l.027-.013c.009.018.018.023.027.013s.022-.009.041,0a.191.191,0,0,0,.115-.007.117.117,0,0,1,.1.007.353.353,0,0,1,.311.135.246.246,0,0,0,.129.047c.049,0,.1.011.142.02a.449.449,0,0,1,.129.048.163.163,0,0,1,.074.128.308.308,0,0,1,.013.095v.068c-.018,0-.027,0-.027.014-.009.054-.023.115-.041.183a.713.713,0,0,0-.027.182h-.014l.014.013c-.027.054-.057.122-.088.2a.232.232,0,0,1-.183.149.324.324,0,0,0-.068.189.1.1,0,0,1-.027.061.041.041,0,0,0,0,.061.225.225,0,0,1-.135.19,1.589,1.589,0,0,1-.244.068,2.078,2.078,0,0,0-.528-.013,3.4,3.4,0,0,1-.528.013.017.017,0,0,1-.027,0q-.014-.013-.041,0a.386.386,0,0,1-.2,0,.141.141,0,0,0-.162.068,3.109,3.109,0,0,0-.122.406q-.054.23-.095.433a1.227,1.227,0,0,0-.095.318c-.018.113-.041.223-.068.331q-.095.406-.189.852t-.162.839c-.009,0-.013.013-.013.041a.72.72,0,0,1-.088.189.272.272,0,0,1-.169.122,1.884,1.884,0,0,1-.392.014q-.2-.013-.392-.014a.168.168,0,0,0-.095-.027.118.118,0,0,1-.081-.041c.018-.009.022-.016.014-.02a.022.022,0,0,1-.014-.02l-.014-.014a.689.689,0,0,1-.013-.135c0-.045-.027-.077-.081-.095a.147.147,0,0,0-.135.041q-.027.095-.054.169a.208.208,0,0,1-.108.115.282.282,0,0,1-.108.013c-.036.018-.061.018-.074,0a.089.089,0,0,0-.075-.027.187.187,0,0,1-.054-.189l.054-.379.054-.379a2.528,2.528,0,0,0-.047-.3.474.474,0,0,1,.034-.3q.027-.23.054-.446t.068-.406a9.348,9.348,0,0,1,.162-1.028q.108-.5.176-1.028.108-.541.21-1.1t.237-1.116c.027-.045.052-.088.074-.129a.2.2,0,0,1,.115-.088.455.455,0,0,1,.108-.014.194.194,0,0,1,.108.027.212.212,0,0,1,.108.189.95.95,0,0,1-.027.23.1.1,0,0,1,.02.047c0,.023.016.034.034.034a.041.041,0,0,0,.061,0,.171.171,0,0,0,.047-.054,1.066,1.066,0,0,0,.047-.156.7.7,0,0,0,.02-.156.148.148,0,0,0,.02-.1.524.524,0,0,0-.02-.1.214.214,0,0,0-.237-.068.4.4,0,0,1-.25,0l-.013.014q-.108,0-.23.007c-.081,0-.162.007-.244.007v-.027l-.027.014a.436.436,0,0,1-.081-.243,1.106,1.106,0,0,1,.027-.243q.027-.122.047-.257a.615.615,0,0,0-.02-.271.524.524,0,0,0,.034-.149.271.271,0,0,1,.061-.149.33.33,0,0,1,.047-.04.317.317,0,0,0,.047-.041q.095,0,.122-.054.054-.081.027-.122l-.041-.081v.014c-.036-.018-.043-.034-.02-.047s.025-.029.007-.047a.5.5,0,0,1,.014-.257.772.772,0,0,1,.122-.243.321.321,0,0,1,.149-.068l.162-.027q.27,0,.548-.014l.521-.027h.122q.487-.027.974-.027t.961-.014l.013.014A.478.478,0,0,1,421.2,623.65Zm-3.971,9.4-.013-.013.013.027Zm2.111-7.008c-.045.018-.068.032-.068.041a.146.146,0,0,0-.054.1.709.709,0,0,0-.014.128h-.014v.108q.013.095.122.068c.009,0,.022-.022.04-.068a.983.983,0,0,1,.068-.156.217.217,0,0,0,.014-.169C419.415,626.044,419.384,626.026,419.339,626.044Z" transform="translate(-407.985 -623.631)" fill="#fff"/>
        <path id="Path_1311" data-name="Path 1311" d="M537.129,623.65a.809.809,0,0,0,.21,0,2.672,2.672,0,0,1,.338.074,2.724,2.724,0,0,0,.325.074c.081,0,.158,0,.23-.007a.941.941,0,0,1,.243.02.159.159,0,0,1,.135.007c.045.023.09.043.136.061a.117.117,0,0,1,.061.1,1.38,1.38,0,0,0,.02.142,3.226,3.226,0,0,0-.1.467,4.422,4.422,0,0,1-.1.494.988.988,0,0,1-.074.095.1.1,0,0,1-.1.041c-.009.018-.018.025-.027.02a.022.022,0,0,0-.027.007.27.27,0,0,0-.047.068.1.1,0,0,0,.007.095.4.4,0,0,1,.061.237.5.5,0,0,1-.061.223.32.32,0,0,1-.3.129,1.205,1.205,0,0,0-.338.007.224.224,0,0,0-.142-.007.183.183,0,0,1-.129-.007q-.352.013-.67,0a4.847,4.847,0,0,0-.629.013.228.228,0,0,0-.149.095.2.2,0,0,1-.04.122.146.146,0,0,0-.027.122v.014h.014c-.018-.009-.027,0-.027.027a.078.078,0,0,1-.027.054q-.081.257-.149.48t-.135.48a.178.178,0,0,1,.007.129c-.014.05.011.079.074.088l.013.027a.85.85,0,0,0,.182.007.759.759,0,0,1,.169.007.112.112,0,0,1,.068-.007.408.408,0,0,0,.068.007v-.013c.009.009.025.011.047.007s.034,0,.034.007l.027-.013c.009.018.018.023.027.013s.022-.009.041,0a.191.191,0,0,0,.115-.007.117.117,0,0,1,.1.007.354.354,0,0,1,.311.135.247.247,0,0,0,.129.047c.049,0,.1.011.142.02a.449.449,0,0,1,.129.048.163.163,0,0,1,.074.128.308.308,0,0,1,.013.095v.068c-.018,0-.027,0-.027.014q-.014.081-.041.183a.713.713,0,0,0-.027.182h-.014l.014.013q-.041.081-.088.2a.232.232,0,0,1-.183.149.324.324,0,0,0-.067.189.1.1,0,0,1-.027.061.041.041,0,0,0,0,.061.226.226,0,0,1-.135.19,1.593,1.593,0,0,1-.244.068,2.077,2.077,0,0,0-.527-.013,3.406,3.406,0,0,1-.528.013.017.017,0,0,1-.027,0c-.009-.009-.023-.009-.041,0a.385.385,0,0,1-.2,0,.141.141,0,0,0-.162.068,3.072,3.072,0,0,0-.122.406q-.054.23-.095.433a1.227,1.227,0,0,0-.095.318c-.018.113-.041.223-.068.331q-.094.406-.189.852t-.162.839c-.009,0-.014.013-.014.041a.724.724,0,0,1-.088.189.272.272,0,0,1-.169.122,1.885,1.885,0,0,1-.392.014q-.2-.013-.392-.014a.169.169,0,0,0-.095-.027.118.118,0,0,1-.081-.041c.018-.009.022-.016.013-.02a.022.022,0,0,1-.013-.02l-.014-.014a.694.694,0,0,1-.014-.135c0-.045-.027-.077-.081-.095a.147.147,0,0,0-.135.041q-.027.095-.054.169a.207.207,0,0,1-.108.115.282.282,0,0,1-.108.013c-.036.018-.061.018-.074,0a.088.088,0,0,0-.074-.027.187.187,0,0,1-.054-.189q.027-.189.054-.379t.054-.379a2.491,2.491,0,0,0-.047-.3.472.472,0,0,1,.034-.3q.027-.23.054-.446t.068-.406a9.333,9.333,0,0,1,.162-1.028q.108-.5.176-1.028.108-.541.21-1.1t.237-1.116c.027-.045.052-.088.075-.129a.2.2,0,0,1,.115-.088.454.454,0,0,1,.108-.014.2.2,0,0,1,.108.027.212.212,0,0,1,.108.189.944.944,0,0,1-.027.23.1.1,0,0,1,.02.047c0,.023.016.034.034.034a.041.041,0,0,0,.061,0,.174.174,0,0,0,.047-.054,1.081,1.081,0,0,0,.047-.156.7.7,0,0,0,.02-.156.147.147,0,0,0,.021-.1.522.522,0,0,0-.021-.1.214.214,0,0,0-.237-.068.394.394,0,0,1-.25,0l-.014.014q-.108,0-.23.007c-.081,0-.162.007-.243.007v-.027l-.027.014a.436.436,0,0,1-.081-.243,1.117,1.117,0,0,1,.027-.243q.027-.122.047-.257a.613.613,0,0,0-.02-.271.51.51,0,0,0,.034-.149.27.27,0,0,1,.061-.149.347.347,0,0,1,.047-.04.3.3,0,0,0,.047-.041c.063,0,.1-.018.122-.054q.054-.081.027-.122l-.041-.081v.014c-.036-.018-.043-.034-.02-.047s.025-.029.007-.047a.5.5,0,0,1,.013-.257.776.776,0,0,1,.122-.243.322.322,0,0,1,.149-.068l.162-.027q.271,0,.548-.014l.521-.027h.122q.487-.027.974-.027t.961-.014l.013.014A.479.479,0,0,1,537.129,623.65Zm-3.971,9.4-.013-.013.013.027Zm2.111-7.008c-.045.018-.068.032-.068.041a.146.146,0,0,0-.054.1.72.72,0,0,0-.014.128h-.013v.108c.009.063.049.086.122.068.009,0,.022-.022.041-.068a.94.94,0,0,1,.068-.156.217.217,0,0,0,.013-.169C535.345,626.044,535.313,626.026,535.268,626.044Z" transform="translate(-517.042 -623.631)" fill="#fff"/>
        <path id="Path_1312" data-name="Path 1312" d="M653.763,623.507l.014-.013a.478.478,0,0,1,.176.061.235.235,0,0,1,.108.142.107.107,0,0,1,.007.061.1.1,0,0,0,.007.061l-.014-.014-.014.027q-.013.122-.027.25t-.027.251l.014.013a.346.346,0,0,1-.047.176l-.088.149a.641.641,0,0,1-.406.285c0,.027-.009.043-.027.047s-.023.02-.014.048a.114.114,0,0,0,.068.095.55.55,0,0,1,.162.095c.009,0,.02.014.034.041a.255.255,0,0,0,.047.068.613.613,0,0,1-.007.271c-.023.09-.047.176-.075.258a.133.133,0,0,0-.047.041.071.071,0,0,1-.061.027c-.054.009-.106.016-.155.02a.375.375,0,0,1-.156-.02q-.5-.014-.954-.021t-.913-.033a.644.644,0,0,1-.23.013.213.213,0,0,0-.2.1.13.13,0,0,1-.041.074c-.018.014-.023.038-.013.074h.013a.109.109,0,0,0-.034.1.3.3,0,0,1-.007.108c-.027.018-.034.032-.02.041a.1.1,0,0,1,.034.041c.009.018.036.027.081.027a.287.287,0,0,0,.088-.115.985.985,0,0,1,.074-.135.293.293,0,0,1,.1-.095.2.2,0,0,1,.156-.007l.027.027v-.027a.29.29,0,0,1,.162.2c-.009.045-.018.088-.027.129a.509.509,0,0,1-.041.115.542.542,0,0,1-.047.135.3.3,0,0,0-.034.135,2.451,2.451,0,0,0-.074.237c-.023.086-.047.169-.074.251v.109a.227.227,0,0,0,.081.2h.23a2.119,2.119,0,0,0,.23-.014.394.394,0,0,0,.149.027.841.841,0,0,0,.162-.014q.135.014.284.014h.284a.145.145,0,0,1,.074.02.322.322,0,0,1,.061.047c.009.018.02.043.034.074a.063.063,0,0,1-.007.075c.009.009.007.023-.007.041a.09.09,0,0,0-.02.054c.009.027,0,.045-.02.054s-.034.023-.034.04a.2.2,0,0,0-.095.19.053.053,0,0,0,.041.054v.014c.018-.018.027-.013.027.014a.617.617,0,0,1,.013.339.688.688,0,0,1-.189.433.336.336,0,0,1-.21.047.34.34,0,0,0-.21.047.457.457,0,0,0-.237.129.284.284,0,0,1-.264.074,3.674,3.674,0,0,0-.386-.007q-.2.007-.385.007a.206.206,0,0,0-.135.02.466.466,0,0,0-.122.088,3.628,3.628,0,0,0-.128.454q-.048.224-.115.454a1.726,1.726,0,0,1-.061.2.238.238,0,0,0,.02.2.3.3,0,0,0,.1.041.532.532,0,0,0,.115.014.07.07,0,0,0,.061,0,.112.112,0,0,1,.061-.014v.014a1.346,1.346,0,0,0,.359.007,1.57,1.57,0,0,1,.385.007.3.3,0,0,1,.108-.007.381.381,0,0,0,.122-.007q.23.014.447.007a2.8,2.8,0,0,1,.433.02v.027h.014v.014h.013a.217.217,0,0,1,.068.074.337.337,0,0,0,.054.075q-.041.19-.081.359t-.081.359a.511.511,0,0,1-.095.135.186.186,0,0,0-.041.163c.018.045.036.092.054.142a.449.449,0,0,1,.027.156h-.027a.675.675,0,0,0-.061.231.345.345,0,0,1-.115.217.165.165,0,0,0-.061.074c-.014.032-.043.043-.088.034a.261.261,0,0,1-.129.02.345.345,0,0,0-.142.02l-.433-.027a3.506,3.506,0,0,0-.433,0,.927.927,0,0,0-.25-.02c-.086,0-.174.007-.264.007a1.181,1.181,0,0,1-.257-.027.4.4,0,0,1-.216-.135c-.054-.018-.09-.018-.108,0a.256.256,0,0,1-.189.108l-.23.027-.014-.014a4.6,4.6,0,0,1-.609.014q-.3-.014-.622,0a.4.4,0,0,1-.284-.163h-.014a.217.217,0,0,0-.013-.122.719.719,0,0,1,.02-.258.682.682,0,0,0,.02-.244,2.213,2.213,0,0,0,.081-.515,3.09,3.09,0,0,1,.068-.529q.04-.244.068-.481t.068-.481q.041-.217.081-.44t.067-.44a.4.4,0,0,0,.027-.149.439.439,0,0,1,.027-.162q.081-.461.176-.948t.2-.935a.232.232,0,0,1,.142-.183.382.382,0,0,0,.182-.156.666.666,0,0,0,.081-.264,1.194,1.194,0,0,1,.054-.264c.009-.036.02-.074.034-.115a.1.1,0,0,0-.047-.115.38.38,0,0,0-.237-.034.464.464,0,0,1-.236-.02.012.012,0,0,0-.014-.014v-.014c-.009.027-.018.031-.027.014a.027.027,0,0,0-.041-.014c.009-.018,0-.027-.027-.027v.013c-.018-.009-.023-.018-.013-.027s.009-.022,0-.041h-.014a.174.174,0,0,1,0-.135.238.238,0,0,0,.014-.136q.013-.054.027-.108c.009-.036.018-.077.027-.122h.014a.024.024,0,0,1,.027-.027c-.018-.009-.023-.014-.014-.014a.012.012,0,0,0,.014-.013.134.134,0,0,1,.115-.081.134.134,0,0,0,.115-.081.083.083,0,0,1,.014-.048.044.044,0,0,0,0-.047c-.045-.027-.1-.061-.162-.1a.141.141,0,0,1-.081-.142,1.869,1.869,0,0,1,.047-.413q.048-.21.088-.413a.55.55,0,0,1,.216-.135.964.964,0,0,1,.25-.047,2.5,2.5,0,0,1,.264,0,.93.93,0,0,0,.257-.02.619.619,0,0,0,.291-.108.343.343,0,0,1,.291-.054.346.346,0,0,0,.088-.007.357.357,0,0,1,.088-.007v.013h.014v-.013c0,.018,0,.023.007.013s.011-.009.02,0a.094.094,0,0,1,.061-.007.144.144,0,0,0,.075-.007h.365q.176,0,.379-.014.514,0,1.082-.007T653.763,623.507Z" transform="translate(-625.715 -623.488)" fill="#fff"/>
        <path id="Path_1313" data-name="Path 1313" d="M762.326,623.435a.65.65,0,0,1,.23-.014.993.993,0,0,0,.23,0q.135.013.271.014a2.531,2.531,0,0,1,.271.014.092.092,0,0,1,.1.007.071.071,0,0,0,.088.007v.027a4.553,4.553,0,0,1,1.1.271,1.748,1.748,0,0,1,.853.7.063.063,0,0,1,.047.047.063.063,0,0,0,.047.047,2.41,2.41,0,0,1,.318.758,2.994,2.994,0,0,1,.061.839,3.214,3.214,0,0,1-.5,1.454,3.927,3.927,0,0,1-1.042,1.116.131.131,0,0,0-.054.081.3.3,0,0,1-.041.095.518.518,0,0,0,.047.223,1.193,1.193,0,0,1,.074.21q.068.189.128.372t.129.372q.149.406.291.819t.25.8q.067.257.156.521a3.158,3.158,0,0,1,.128.534.235.235,0,0,1-.2.189q-.19.027-.379.061t-.379.061a.467.467,0,0,1-.169-.088.2.2,0,0,0-.183-.034.112.112,0,0,0-.074.1.114.114,0,0,1-.088.1.909.909,0,0,0-.149.014.147.147,0,0,1-.135-.041l-.081-.095q-.2-.5-.446-1.015a.459.459,0,0,1-.135-.189,1.207,1.207,0,0,0-.108-.217q-.257-.568-.534-1.116t-.589-1.1a.112.112,0,0,0-.122-.014.18.18,0,0,0-.068.149.4.4,0,0,1-.027.149q-.122.5-.217.994t-.189.995a.926.926,0,0,1-.074.183q-.048.088-.1.169a.846.846,0,0,1-.02.176c-.014.063-.025.127-.034.19a.684.684,0,0,0-.034.169.724.724,0,0,1-.034.169h-.027l.014.013-.014.014c.018.027.016.036-.007.027s-.039,0-.047.013a.112.112,0,0,1-.108.041.283.283,0,0,0-.122,0,.308.308,0,0,0-.095-.014q-.054,0-.081-.068a.52.52,0,0,1-.027-.189.647.647,0,0,0-.027-.2c-.036-.054-.077-.063-.122-.027a.455.455,0,0,0-.054.122c-.009.036-.023.081-.041.135l-.054.162a.166.166,0,0,1-.122.108v.027a.483.483,0,0,1-.264.007c-.086-.022-.169-.047-.25-.074a.332.332,0,0,1-.244-.081.3.3,0,0,1-.088-.264c.013-.1.025-.2.033-.291a6.212,6.212,0,0,1,.095-.758,1.491,1.491,0,0,1,.027-.277,1.4,1.4,0,0,0,.027-.264q.067-.568.142-1.1t.156-1.048a.629.629,0,0,0-.027-.365.469.469,0,0,1,.014-.365,1.255,1.255,0,0,0,.034-.23,1.187,1.187,0,0,1,.034-.23c-.018-.009-.02-.016-.007-.02s.016-.011.007-.02q.041-.27.088-.555t.088-.568a.672.672,0,0,1,.243-.311.565.565,0,0,1,.176-.047,1.2,1.2,0,0,0,.189-.034.133.133,0,0,0,.068-.122c-.018-.072-.05-.108-.095-.108a.349.349,0,0,1-.081-.007.125.125,0,0,0-.068.007v.013c0-.018-.009-.022-.027-.013a.088.088,0,0,1-.068,0l-.013.013a.284.284,0,0,0-.122,0c-.009-.018-.018-.022-.027-.013s-.018,0-.027-.014l-.054.02c-.009,0-.027,0-.054-.02a.332.332,0,0,1-.162-.013.206.206,0,0,1-.122-.108.148.148,0,0,1-.02-.156.439.439,0,0,0,.034-.156.233.233,0,0,1,.115-.115.427.427,0,0,0,.128-.074.088.088,0,0,0,.075-.027.25.25,0,0,1,.061-.054.11.11,0,0,0-.014-.068.569.569,0,0,1-.162-.088.2.2,0,0,1-.081-.169,1.878,1.878,0,0,0,.014-.23.586.586,0,0,0-.041-.23,1.613,1.613,0,0,1,.027-.3q.027-.142.054-.291a.068.068,0,0,0,.034-.054c0-.027.016-.036.034-.027.018-.045.045-.063.081-.054a.069.069,0,0,0,.081-.027q.27-.027.541-.034t.541-.02q.189,0,.406-.007c.144,0,.284-.011.419-.02a.073.073,0,0,0,.081.007.106.106,0,0,1,.081-.007A.63.63,0,0,1,762.326,623.435Zm-.3,2.388c-.014.014-.02.011-.02-.007-.018.018-.032.023-.041.013s-.014,0-.014.014h-.013v-.014a.2.2,0,0,0-.115.2.922.922,0,0,1-.02.25q0,.041.054.068c.009.009.016.007.02-.007s.011-.011.02.007l.068-.095c-.018-.018-.016-.031.007-.041s.029-.027.02-.054l.054-.108a.089.089,0,0,0,0-.095c.027-.018.038-.034.034-.047a.146.146,0,0,1-.007-.047C762.051,625.82,762.035,625.809,762.021,625.823Zm.764-.088a.219.219,0,0,0-.189.095.31.31,0,0,1-.027.129.314.314,0,0,0-.027.128q-.054.176-.115.365a3.809,3.809,0,0,0-.1.379q-.068.243-.115.453t-.115.453a.093.093,0,0,0,.041.122.587.587,0,0,0,.108.054c.081-.018.158-.036.23-.054a1.057,1.057,0,0,0,.216-.081,4.4,4.4,0,0,0,.44-.324,1.305,1.305,0,0,0,.331-.419,1.2,1.2,0,0,0,.129-.514.74.74,0,0,0-.183-.5.172.172,0,0,0-.088-.081.331.331,0,0,1-.1-.068.4.4,0,0,0-.142-.074,1.318,1.318,0,0,1-.142-.047A.638.638,0,0,1,762.786,625.735Z" transform="translate(-730.381 -623.402)" fill="#fff"/>
      </g>
    </g>
  </g>
</svg>
